<?xml version="1.0" encoding="UTF-8"?>
<svg version="1.1" xmlns="http://www.w3.org/2000/svg" width="320" height="320">
<path d="M0 0 C4.29625091 1.88774661 8.09796382 4.40768608 12 7 C13.1261029 7.72491231 14.25374049 8.4474455 15.3828125 9.16772461 C17.73500317 10.67053377 20.0802519 12.18342196 22.421875 13.70263672 C25.95569706 15.98453473 29.53196116 18.19173937 33.125 20.37890625 C33.70459473 20.73205902 34.28418945 21.08521179 34.88134766 21.44906616 C36.58714435 22.48756887 38.29356668 23.52504371 40 24.5625 C59.30148206 36.30148206 59.30148206 36.30148206 64 41 C65.60303046 48.31495726 63.14283925 53.51053574 59.27587891 59.60107422 C58.60733887 60.59896973 57.93879883 61.59686523 57.25 62.625 C56.5698584 63.67316895 55.8897168 64.72133789 55.18896484 65.80126953 C47.01207764 78.27030524 38.33262732 90.21968518 28 101 C27.18402344 101.87914063 26.36804688 102.75828125 25.52734375 103.6640625 C3.91442632 126.26372579 -25.42451855 139.30821778 -56.77148438 140.01123047 C-68.72212736 139.95100593 -80.64888387 138.24665365 -92.375 136.0625 C-93.22400879 135.90499268 -94.07301758 135.74748535 -94.94775391 135.58520508 C-100.22650255 134.53502964 -104.99609797 132.97840922 -110 131 C-111.68479818 130.470492 -113.37219186 129.94914636 -115.0625 129.4375 C-124.40016325 126.36872832 -133.32983951 122.19318614 -142.29833984 118.1953125 C-144.08417092 117.40519602 -145.87617099 116.62886312 -147.67431641 115.8671875 C-148.4894873 115.51914063 -149.3046582 115.17109375 -150.14453125 114.8125 C-150.86616455 114.50957031 -151.58779785 114.20664063 -152.33129883 113.89453125 C-154 113 -154 113 -155 111 C-156.88764903 110.31527335 -156.88764903 110.31527335 -159.0625 109.875 C-159.79597656 109.70742187 -160.52945313 109.53984375 -161.28515625 109.3671875 C-162.13400391 109.18542969 -162.13400391 109.18542969 -163 109 C-163 108.34 -163 107.68 -163 107 C-163.71373779 106.885354 -164.42747559 106.77070801 -165.1628418 106.65258789 C-168.18021102 105.95854883 -170.6116543 104.91040226 -173.39453125 103.55859375 C-174.42553955 103.06109619 -175.45654785 102.56359863 -176.51879883 102.05102539 C-177.60572021 101.51856201 -178.6926416 100.98609863 -179.8125 100.4375 C-180.92584717 99.89536865 -182.03919434 99.3532373 -183.1862793 98.79467773 C-185.42094207 97.70505946 -187.65444179 96.61305241 -189.88671875 95.51855469 C-192.60336929 94.19346322 -195.32899668 92.89139257 -198.0625 91.6015625 C-199.47936922 90.92229735 -200.89605319 90.24264556 -202.3125 89.5625 C-203.26056519 89.12345337 -203.26056519 89.12345337 -204.2277832 88.67553711 C-208.18085362 86.74642121 -210.58873365 84.68096699 -213 81 C-214.27233372 74.07284975 -210.7972086 68.16023433 -208 62 C-207.61972656 61.09636719 -207.23945313 60.19273438 -206.84765625 59.26171875 C-204.25505561 53.12752781 -204.25505561 53.12752781 -202 52 C-201.66573212 50.00015598 -201.33256289 48.00012825 -201 46 C-199.765625 43.2109375 -199.765625 43.2109375 -198.25 40.375 C-196.18204381 36.38609872 -194.29555475 32.42070472 -192.625 28.25 C-190.56495511 23.2489264 -188.38376261 18.32193796 -186.0625 13.4375 C-185.75070801 12.74624023 -185.43891602 12.05498047 -185.11767578 11.34277344 C-183.45331027 7.91558939 -182.30331349 6.21359525 -179.12109375 3.97265625 C-173.68567053 2.27876341 -169.43542672 4.03479641 -164.4921875 6.484375 C-162.90929932 7.25938354 -162.90929932 7.25938354 -161.29443359 8.05004883 C-160.16602051 8.61103271 -159.03760742 9.1720166 -157.875 9.75 C-155.44875892 10.93796786 -153.02180164 12.12434363 -150.59375 13.30859375 C-149.97067963 13.613311 -149.34760925 13.91802826 -148.70565796 14.23197937 C-140.79509421 18.09239696 -132.80091993 21.76983765 -124.80908203 25.45825195 C-119.12735517 28.08166757 -113.45998658 30.72723202 -107.82202148 33.44335938 C-90.50795248 41.75052197 -69.80096474 51.58049194 -50.50390625 45.02734375 C-32.60874431 37.68502302 -23.10708007 20.65940024 -15 4 C-14.34 4 -13.68 4 -13 4 C-12.67 3.01 -12.34 2.02 -12 1 C-8.15198616 -0.92400692 -4.17742846 -0.66996494 0 0 Z " fill="#1B76F1" transform="translate(240,21)"/>
<path d="M0 0 C7.42699194 3.66022734 14.8590081 7.2858945 22.39794922 10.7109375 C23.04983215 11.00796066 23.70171509 11.30498383 24.37335205 11.61100769 C27.39625651 12.98574239 30.42391685 14.34635282 33.46142578 15.6887207 C45.56835724 21.16342416 45.56835724 21.16342416 48.12451172 27.83203125 C48.5622372 33.87426413 45.05662896 39.55807826 42.60107422 44.8984375 C42.02033021 46.19245218 41.44110148 47.48714782 40.86328125 48.7824707 C39.60421137 51.5982354 38.33507519 54.40919596 37.06005859 57.21777344 C34.81238871 62.18090915 32.6209425 67.16822929 30.42919922 72.15625 C29.28179586 74.75773616 28.13309805 77.35864491 26.98358154 79.959198 C26.23007357 81.66530167 25.47815413 83.37210782 24.72784424 85.07962036 C23.66908699 87.48461413 22.6011796 89.88533404 21.53076172 92.28515625 C21.21560608 93.00571198 20.90045044 93.7262677 20.57574463 94.46865845 C17.69708596 100.87753324 17.69708596 100.87753324 14.97607422 102.8359375 C8.48280356 104.40327869 4.08631196 103.33943769 -2.02392578 100.8359375 C-2.02392578 100.1759375 -2.02392578 99.5159375 -2.02392578 98.8359375 C-2.85923828 98.56330078 -2.85923828 98.56330078 -3.71142578 98.28515625 C-8.86589569 96.58731565 -13.95403193 94.77171515 -19.02392578 92.8359375 C-19.02392578 92.1759375 -19.02392578 91.5159375 -19.02392578 90.8359375 C-20.49925781 90.46855469 -20.49925781 90.46855469 -22.00439453 90.09375 C-26.4027414 88.83771239 -30.29878226 86.82892289 -34.33642578 84.7109375 C-38.95579461 81.96752697 -38.95579461 81.96752697 -44.02392578 80.8359375 C-44.02392578 80.1759375 -44.02392578 79.5159375 -44.02392578 78.8359375 C-45.23048828 78.4646875 -45.23048828 78.4646875 -46.46142578 78.0859375 C-51.75351472 76.22906419 -56.79666583 73.88082488 -61.87158203 71.5 C-62.82935547 71.05398438 -63.78712891 70.60796875 -64.77392578 70.1484375 C-65.65564453 69.73207031 -66.53736328 69.31570313 -67.44580078 68.88671875 C-69.97769899 67.85477842 -72.33191397 67.27653656 -75.02392578 66.8359375 C-75.02392578 66.1759375 -75.02392578 65.5159375 -75.02392578 64.8359375 C-75.89404297 64.701875 -76.76416016 64.5678125 -77.66064453 64.4296875 C-80.7823567 63.87858384 -83.77607531 63.15530844 -86.83642578 62.3359375 C-98.87325629 59.30817742 -109.88478586 58.52847533 -121.02392578 64.8359375 C-132.47541344 71.96323911 -139.07145264 82.73294321 -145.89599609 93.99316406 C-151.75753234 103.56954406 -151.75753234 103.56954406 -155.02392578 106.8359375 C-163.01117861 108.37124687 -168.44556538 105.56672553 -174.96142578 101.2734375 C-175.82952881 100.7271167 -176.69763184 100.1807959 -177.59204102 99.61791992 C-180.08340891 98.04465731 -182.55524876 96.44449196 -185.02392578 94.8359375 C-186.23383259 94.06088866 -187.44462715 93.28722191 -188.65673828 92.515625 C-190.45461632 91.3697774 -192.24649977 90.21437284 -194.02783203 89.04296875 C-196.10610071 87.68616065 -196.10610071 87.68616065 -199.02392578 86.8359375 C-199.02392578 86.1759375 -199.02392578 85.5159375 -199.02392578 84.8359375 C-199.87651978 84.67158203 -199.87651978 84.67158203 -200.74633789 84.50390625 C-203.34288226 83.74239425 -205.19761046 82.62174356 -207.46533203 81.1484375 C-208.29613281 80.61476563 -209.12693359 80.08109375 -209.98291016 79.53125 C-210.84207031 78.97179687 -211.70123047 78.41234375 -212.58642578 77.8359375 C-214.29419412 76.72888529 -216.00375495 75.62459198 -217.71533203 74.5234375 C-218.84757202 73.78673828 -218.84757202 73.78673828 -220.00268555 73.03515625 C-222.10559434 71.69087548 -222.10559434 71.69087548 -225.02392578 70.8359375 C-225.02392578 70.1759375 -225.02392578 69.5159375 -225.02392578 68.8359375 C-226.34392578 68.1759375 -227.66392578 67.5159375 -229.02392578 66.8359375 C-230.35771049 57.59206848 -227.5725031 52.22262518 -222.34228516 44.74316406 C-220.88848961 42.64000651 -219.49327567 40.50440735 -218.10205078 38.359375 C-210.27636002 26.33996474 -201.81685757 15.33422284 -192.02392578 4.8359375 C-191.26466797 4.0109375 -190.50541016 3.1859375 -189.72314453 2.3359375 C-135.84831631 -54.09596113 -60.56518755 -29.86156066 0 0 Z " fill="#1B76F1" transform="translate(245.02392578125,191.1640625)"/>
<path d="M0 0 C0.99 0.33 1.98 0.66 3 1 C0.36 2.98 -2.28 4.96 -5 7 C-3.75023244 3.34683329 -3.32901247 2.21934164 0 0 Z " fill="#085ED8" transform="translate(61,25)"/>
</svg>
