<?xml version="1.0" encoding="UTF-8"?>
<svg version="1.1" xmlns="http://www.w3.org/2000/svg" width="1200" height="814">
<path d="M0 0 C0 0.66 0 1.32 0 2 C0.87011719 2.38478516 0.87011719 2.38478516 1.7578125 2.77734375 C4.21516409 4.11732815 5.89171463 5.59116213 7.875 7.5625 C8.51179688 8.18253906 9.14859375 8.80257813 9.8046875 9.44140625 C12.90368249 13.05322426 15.42619163 17.00365388 18 21 C17.99476318 20.28457031 17.98952637 19.56914062 17.98413086 18.83203125 C17.96319704 15.55469662 17.95028798 12.27737613 17.9375 9 C17.92912109 7.87464844 17.92074219 6.74929688 17.91210938 5.58984375 C17.90888672 4.48769531 17.90566406 3.38554687 17.90234375 2.25 C17.89710693 1.24453125 17.89187012 0.2390625 17.88647461 -0.796875 C18.01939731 -4.5472962 18.53452543 -8.27620341 19 -12 C33.19 -12 47.38 -12 62 -12 C62 60.93 62 133.86 62 209 C47.81 209 33.62 209 19 209 C18.39727771 203.57549943 17.87544609 198.7862276 17.90234375 193.43359375 C17.90556641 192.28955078 17.90878906 191.14550781 17.91210938 189.96679688 C17.92048828 188.80212891 17.92886719 187.63746094 17.9375 186.4375 C17.94201172 185.23802734 17.94652344 184.03855469 17.95117188 182.80273438 C17.96286231 179.86843641 17.97924862 176.93424551 18 174 C17.16855469 175.54880859 17.16855469 175.54880859 16.3203125 177.12890625 C14.22402042 180.79418522 11.73789117 183.82250349 8.875 186.9375 C8.00617188 187.89527344 7.13734375 188.85304688 6.2421875 189.83984375 C4 192 4 192 2 192 C2 192.66 2 193.32 2 194 C0.68 194.33 -0.64 194.66 -2 195 C-2 195.66 -2 196.32 -2 197 C-25.94447843 213.58980442 -53.84741413 216.43023926 -82 212 C-89.10970702 210.56788977 -95.46145243 208.07927591 -102 205 C-103.66194738 204.32165413 -105.32598903 203.64800425 -107 203 C-107 202.34 -107 201.68 -107 201 C-107.71414063 200.74476563 -108.42828125 200.48953125 -109.1640625 200.2265625 C-117.64293315 196.55939255 -124.35348682 190.16554797 -130 183 C-130.804375 182.05125 -131.60875 181.1025 -132.4375 180.125 C-134 178 -134 178 -134 176 C-134.66 176 -135.32 176 -136 176 C-142.3492482 165.59774587 -146.76155846 155.73122197 -150 144 C-150.3403125 143.01773438 -150.680625 142.03546875 -151.03125 141.0234375 C-152.16772381 137.47653939 -152.89538048 133.90680329 -153.5625 130.25 C-153.68818359 129.59773437 -153.81386719 128.94546875 -153.94335938 128.2734375 C-157.7671691 107.6929328 -157.71908518 85.39862626 -153 65 C-152.77183594 63.99710937 -152.54367187 62.99421875 -152.30859375 61.9609375 C-151.62964801 59.2684327 -150.85165811 56.6428135 -150 54 C-149.64035156 52.88109375 -149.28070312 51.7621875 -148.91015625 50.609375 C-141.09593998 27.5412094 -125.08242584 5.26016048 -103 -6 C-94.53526208 -10.0630742 -86.20012316 -13.13025761 -77 -15 C-76.09378906 -15.20496094 -75.18757813 -15.40992188 -74.25390625 -15.62109375 C-49.13070709 -20.67360953 -20.60300861 -15.66393121 0 0 Z M-79 28 C-80.66194738 28.67834587 -82.32598903 29.35199575 -84 30 C-84 30.66 -84 31.32 -84 32 C-84.70125 32.226875 -85.4025 32.45375 -86.125 32.6875 C-96.8906256 37.60224212 -102.48229317 48.63742617 -107 59 C-108.19788777 62.29539407 -109.15392211 65.59876688 -110 69 C-110.19335938 69.72574219 -110.38671875 70.45148438 -110.5859375 71.19921875 C-115.00441283 89.03320975 -114.77770801 111.27904666 -110 129 C-109.75636719 129.97453125 -109.51273438 130.9490625 -109.26171875 131.953125 C-105.05657249 147.29172016 -97.09365891 160.052644 -83.484375 168.6875 C-73.14176556 174.15152008 -61.40389304 176.38645341 -49.8125 176.3125 C-48.89412354 176.30758545 -47.97574707 176.3026709 -47.02954102 176.29760742 C-29.2640965 175.9941773 -12.13425893 170.27750827 1 158 C8.29793387 149.96912237 8.29793387 149.96912237 11 140 C11.66 140 12.32 140 13 140 C13.6398903 138.13002931 14.26077052 136.25355587 14.875 134.375 C15.22304687 133.33085937 15.57109375 132.28671875 15.9296875 131.2109375 C18.93741669 120.49115302 19.36144787 109.3768787 19.3125 98.3125 C19.30831055 97.00901611 19.30412109 95.70553223 19.29980469 94.36254883 C19.14387014 80.94803082 18.67178924 66.97621531 12 55 C11.14413934 53.22998477 10.2900292 51.45912224 9.4375 49.6875 C7.88847345 46.53358036 6.30347636 43.67007737 4 41 C3.34 41 2.68 41 2 41 C1.79375 40.443125 1.5875 39.88625 1.375 39.3125 C-0.59223543 36.00396768 -2.89062714 34.2844372 -6 32 C-6.99 32 -7.98 32 -9 32 C-9 31.34 -9 30.68 -9 30 C-12.92715083 27.14250115 -17.27731785 25.76719534 -21.875 24.375 C-22.89787109 24.05015625 -22.89787109 24.05015625 -23.94140625 23.71875 C-41.40991543 18.32846717 -62.68244017 19.55368599 -79 28 Z " fill="#243858" transform="translate(1100,297)"/>
<path d="M0 0 C63.03 0 126.06 0 191 0 C191 0.99 191 1.98 191 3 C192.65 3.33 194.3 3.66 196 4 C196 4.66 196 5.32 196 6 C196.5775 6.226875 197.155 6.45375 197.75 6.6875 C201.56083774 8.91048868 203.61929664 11.85788992 205 16 C205.09247774 18.30800006 205.12192711 20.61866115 205.12025452 22.92851257 C205.12153615 23.99203932 205.12153615 23.99203932 205.12284368 25.07705146 C205.12449395 27.45853833 205.11898451 29.83995514 205.11352539 32.22143555 C205.1132434 33.92628986 205.11340149 35.63114429 205.1139679 37.33599854 C205.11425539 41.96998121 205.10836641 46.60393812 205.10139394 51.2379148 C205.09515241 56.07859654 205.09455597 60.91927884 205.09336853 65.75996399 C205.09025758 74.92906373 205.08204736 84.09815157 205.07201904 93.26724607 C205.06085059 103.70484216 205.0553456 114.14243881 205.05032361 124.58003938 C205.03986456 146.05336623 205.02226967 167.52668237 205 189 C201.96773842 190.61012453 200.24547284 191.22684328 196.8046875 190.86328125 C196.01167236 190.78255371 195.21865723 190.70182617 194.40161133 190.61865234 C193.56782959 190.51762207 192.73404785 190.4165918 191.875 190.3125 C191.01479248 190.21146973 190.15458496 190.11043945 189.26831055 190.00634766 C169.25137786 187.49925291 148.87788753 176.7943503 136 161 C136 160.34 136 159.68 136 159 C135.34 159 134.68 159 134 159 C128.38733887 151.31821214 124.26261921 142.91529667 121 134 C120.64679688 133.10152344 120.29359375 132.20304688 119.9296875 131.27734375 C117.06225639 121.16904669 117.88175589 110.28757811 117.9375 99.875 C117.94252563 98.23437637 117.94708665 96.59375124 117.95117188 94.953125 C117.96209195 90.96871258 117.97929782 86.9843731 118 83 C116.84701416 83.01571045 115.69402832 83.0314209 114.50610352 83.04760742 C110.14305885 83.1027625 105.78004348 83.13665431 101.41674805 83.16479492 C99.54429915 83.17968995 97.6718839 83.20001285 95.79956055 83.22631836 C68.29298796 83.60251444 43.85692995 77.97607338 23.43725586 58.51342773 C8.25613458 43.54107949 0.31793109 25.26779 -1 4 C-0.67 2.68 -0.34 1.36 0 0 Z " fill="#2583FD" transform="translate(204,179)"/>
<path d="M0 0 C24.68656062 -0.04669792 49.37311463 -0.08197802 74.0597105 -0.10362434 C85.52183699 -0.11394175 96.98393604 -0.12801099 108.44604492 -0.15087891 C118.43512881 -0.17079853 128.42419284 -0.18371305 138.41329604 -0.18817699 C143.70359716 -0.19078678 148.99384145 -0.19693064 154.28412437 -0.21146011 C159.26216656 -0.22502144 164.24012843 -0.22922556 169.21818733 -0.22621536 C171.04634411 -0.22676617 172.87450353 -0.23075223 174.70264435 -0.23841095 C177.19705945 -0.2483495 179.69117064 -0.24597286 182.18559265 -0.24050903 C182.91030862 -0.24633472 183.63502459 -0.2521604 184.38170165 -0.25816262 C191.67921741 -0.21490659 195.75231426 1.98047451 201 7 C203.79757271 11.5816265 204.37230651 14.99439231 204.36076355 20.32723999 C204.36332682 21.04290465 204.3658901 21.75856931 204.36853105 22.49592078 C204.373453 24.88211621 204.35700292 27.26767194 204.34057617 29.65380859 C204.33972955 31.36895737 204.34020572 33.08410723 204.34190369 34.79925537 C204.34276371 39.44760772 204.32513679 44.09572739 204.30418181 48.74402571 C204.28541621 53.60469855 204.28366466 58.46537684 204.28010559 63.32608032 C204.27078479 72.5270002 204.2461705 81.72781303 204.21605712 90.92868578 C204.18251423 101.4050313 204.16602737 111.88138196 204.15097082 122.35776782 C204.11962101 143.90523828 204.06685979 165.45261239 204 187 C200.39833389 188.52859931 198.1701181 189.22628682 194.26953125 188.6796875 C192.94804077 188.49780884 192.94804077 188.49780884 191.59985352 188.31225586 C190.22011353 188.09581421 190.22011353 188.09581421 188.8125 187.875 C187.87011475 187.73392822 186.92772949 187.59285645 185.95678711 187.44750977 C179.53080997 186.41745933 173.86464172 184.85339711 168 182 C166.00697876 181.3127513 164.01032877 180.63484067 162 180 C162 179.34 162 178.68 162 178 C161.27425781 177.89558594 160.54851562 177.79117188 159.80078125 177.68359375 C156.74015809 176.93657973 154.78528522 175.82451352 152.1875 174.0625 C151.39730469 173.53785156 150.60710937 173.01320313 149.79296875 172.47265625 C149.20128906 171.98667969 148.60960937 171.50070312 148 171 C148 170.34 148 169.68 148 169 C147.278125 168.79375 146.55625 168.5875 145.8125 168.375 C142.86258959 166.93282158 141.36662951 165.34197431 139.40625 162.73046875 C137.92036771 160.83113155 137.92036771 160.83113155 135.625 158.70703125 C118.77892797 141.33451947 116.61434946 119.02187864 116.875 96.0625 C116.8850671 94.49284436 116.89418625 92.92318235 116.90234375 91.35351562 C116.92402245 87.56884809 116.95833815 83.78449811 117 80 C116.12129494 80.00666183 116.12129494 80.00666183 115.22483826 80.01345825 C109.10882006 80.05782365 102.99284786 80.08792119 96.87670898 80.10986328 C94.59641665 80.11989935 92.31613711 80.13353115 90.03588867 80.15087891 C86.75175816 80.17523233 83.46779833 80.18650728 80.18359375 80.1953125 C79.16978134 80.20563507 78.15596893 80.21595764 77.11143494 80.22659302 C71.64687818 80.22745248 67.16547296 79.79621027 62 78 C60.97519531 77.71640625 59.95039063 77.4328125 58.89453125 77.140625 C51.10877442 74.8907485 44.12482033 71.85125423 37 68 C37 67.34 37 66.68 37 66 C35.92685547 65.62875 35.92685547 65.62875 34.83203125 65.25 C31.68590294 63.86136405 29.36189037 62.15536054 26.6875 60 C25.36298828 58.948125 25.36298828 58.948125 24.01171875 57.875 C23.34785156 57.25625 22.68398437 56.6375 22 56 C22 55.34 22 54.68 22 54 C20.515 53.505 20.515 53.505 19 53 C17.2659157 50.88676845 15.68272715 48.79957169 14.125 46.5625 C13.67954834 45.92868408 13.23409668 45.29486816 12.77514648 44.6418457 C4.09991209 32.08236761 -1.82956412 17.48519699 -1 2 C-0.67 1.34 -0.34 0.68 0 0 Z " fill="#2481FC" transform="translate(113,267)"/>
<path d="M0 0 C25.19079723 -0.0934159 50.38156853 -0.16396581 75.57250404 -0.20724869 C87.26893527 -0.2278793 98.96525892 -0.25600955 110.66162109 -0.30175781 C120.85544003 -0.34161016 131.04918106 -0.36742918 141.24307573 -0.37635398 C146.64135213 -0.38157141 152.03940562 -0.39384486 157.43761063 -0.42292023 C162.51831477 -0.45006387 167.59870411 -0.45844705 172.67947388 -0.45243073 C174.54431239 -0.45353143 176.4091614 -0.46149151 178.27393723 -0.4768219 C180.82083895 -0.49673354 183.36655328 -0.49193522 185.91348267 -0.48101807 C186.65084959 -0.49266943 187.38821651 -0.5043208 188.14792788 -0.51632524 C194.01498949 -0.44838178 197.42806395 1.61133731 201.64453125 5.52734375 C206.10507369 10.91281472 206.1249578 15.33932192 206.12698364 22.15556335 C206.12854363 22.86487891 206.13010362 23.57419446 206.13171089 24.30500442 C206.1356913 26.67560692 206.13254276 29.04614509 206.12939453 31.41674805 C206.13074985 33.11865272 206.13253052 34.82055711 206.13470459 36.52246094 C206.13926236 41.13992779 206.13749643 45.7573723 206.1343255 50.37483954 C206.13179461 55.20389857 206.13414137 60.03295567 206.13571167 64.86201477 C206.1375307 72.96831608 206.13513347 81.07460828 206.13037109 89.1809082 C206.12492348 98.56211503 206.12669582 107.94330015 206.1321975 117.32450646 C206.13672964 125.37383068 206.13737885 133.42314836 206.13475883 141.47247344 C206.13319732 146.28247643 206.13299897 151.0924692 206.13629532 155.90247154 C206.13917567 160.42092536 206.1371953 164.93935105 206.13140106 169.45780182 C206.13007459 171.11951208 206.13046569 172.7812247 206.13266373 174.44293404 C206.13537948 176.70378426 206.13198892 178.96454323 206.12698364 181.22538757 C206.1264181 183.12652329 206.1264181 183.12652329 206.12584114 185.06606579 C206 188 206 188 205 190 C203.37536158 190.05395478 201.75021459 190.09277195 200.125 190.125 C199.22007812 190.14820313 198.31515625 190.17140625 197.3828125 190.1953125 C195 190 195 190 193 188 C190.8488154 187.47376936 188.67774662 187.0274097 186.5 186.625 C180.28340608 185.35630736 174.749572 183.65584535 169 181 C168.18015625 180.63003906 167.3603125 180.26007813 166.515625 179.87890625 C160.19226459 176.88414705 154.64376152 173.11114371 149 169 C148.01 168.34 147.02 167.68 146 167 C146 166.34 146 165.68 146 165 C145.41863281 164.75121094 144.83726562 164.50242187 144.23828125 164.24609375 C131.65254587 157.23937545 125.01231518 140.10554269 121 127 C119.35710399 120.93929474 118.71989652 115.29372811 118.8046875 109.02734375 C118.8075174 108.21882462 118.81034729 107.41030548 118.81326294 106.57728577 C118.82433223 104.03053082 118.84941042 101.4841461 118.875 98.9375 C118.88504698 97.19596867 118.8941698 95.45443175 118.90234375 93.71289062 C118.92422787 89.47512083 118.95866354 85.23762287 119 81 C117.77482666 80.97494385 116.54965332 80.9498877 115.28735352 80.92407227 C110.70815965 80.82934874 106.12909473 80.72929104 101.55004883 80.62768555 C99.57449375 80.58458077 97.59890724 80.54289038 95.62329102 80.50268555 C92.77090009 80.44438535 89.91866379 80.38086855 87.06640625 80.31640625 C86.19415909 80.29969376 85.32191193 80.28298126 84.42323303 80.26576233 C72.27975075 79.97748954 61.19939664 77.9602864 50 73 C49.67 72.34 49.34 71.68 49 71 C47.66961551 70.6550855 46.33542939 70.32483418 45 70 C26.28285513 61.91759653 12.55716863 44.43257457 5 26 C4.03819444 22.9879399 3.22453163 20.03282201 2.5703125 16.94140625 C2.38210937 16.30074219 2.19390625 15.66007812 2 15 C1.34 14.67 0.68 14.34 0 14 C0 9.38 0 4.76 0 0 Z " fill="#2481FC" transform="translate(19,353)"/>
<path d="M0 0 C6.24795675 -0.02527124 12.49590041 -0.04283344 18.74389648 -0.05493164 C20.87118014 -0.05997298 22.99846031 -0.06680591 25.12573242 -0.07543945 C28.17627826 -0.08751379 31.22677845 -0.09323014 34.27734375 -0.09765625 C35.71327126 -0.10539818 35.71327126 -0.10539818 37.1782074 -0.11329651 C38.49946373 -0.11340981 38.49946373 -0.11340981 39.84741211 -0.11352539 C40.62684677 -0.115746 41.40628143 -0.11796661 42.20933533 -0.12025452 C44 0 44 0 45 1 C45.10448016 3.63133276 45.14332366 6.23664948 45.14044189 8.86869812 C45.14341302 9.70340899 45.14638414 10.53811986 45.1494453 11.39812499 C45.15817295 14.21814469 45.15964406 17.03812213 45.16113281 19.8581543 C45.16575877 21.87184236 45.17078313 23.88552955 45.17617798 25.8992157 C45.1893408 31.39219368 45.19575653 36.8851594 45.20018864 42.3781507 C45.20311811 45.8161312 45.20722307 49.25410835 45.21169281 52.69208717 C45.22538889 63.46482125 45.23504054 74.23754767 45.2388947 85.01028985 C45.24335608 97.41142915 45.26080518 109.81245717 45.2898953 122.21356267 C45.31162303 131.81300028 45.32160515 141.41240687 45.32293582 151.01186877 C45.32397758 156.73587333 45.32974787 162.45977359 45.34775543 168.18375206 C45.36442452 173.58869732 45.36630181 178.99346211 45.35761642 184.39842415 C45.35685553 186.36457177 45.36106068 188.33072984 45.37107468 190.29685211 C45.49606921 216.40726066 43.06191602 245.38018258 25 266 C24.34 266 23.68 266 23 266 C22.67 266.99 22.34 267.98 22 269 C21.34 269 20.68 269 20 269 C20 269.66 20 270.32 20 271 C15.52941176 275 15.52941176 275 13 275 C13 275.66 13 276.32 13 277 C6.67959598 281.79857138 -0.52369412 284.5668827 -8 287 C-8.87785156 287.33 -9.75570312 287.66 -10.66015625 288 C-36.14939971 295.63186705 -68.41247703 292.83500919 -93 283 C-93 269.8 -93 256.6 -93 243 C-88.49280413 243.64388512 -84.52076608 244.29342291 -80.1875 245.4375 C-78.13044209 245.97942836 -76.06694571 246.49709936 -74 247 C-72.95694702 247.263573 -72.95694702 247.263573 -71.89282227 247.5324707 C-64.45496964 249.23973173 -57.16909613 249.33211474 -49.5625 249.3125 C-47.69368164 249.33666992 -47.69368164 249.33666992 -45.78710938 249.36132812 C-38.03798247 249.36539591 -31.34122258 248.47887503 -24 246 C-22.1746875 245.4121875 -22.1746875 245.4121875 -20.3125 244.8125 C-19.1678125 244.4103125 -19.1678125 244.4103125 -18 244 C-18 243.34 -18 242.68 -18 242 C-16.9171875 241.38125 -16.9171875 241.38125 -15.8125 240.75 C-8.51626854 236.21012265 -5.42170503 228.98645531 -3 221 C-2.47017261 218.13044161 -2.15144058 215.25789117 -1.8686676 212.35450745 C-1.78574197 211.52745727 -1.70281634 210.7004071 -1.61737782 209.84829479 C-0.74714805 200.40559382 -0.74174216 190.98989035 -0.78881836 181.51538086 C-0.79102646 179.54540586 -0.7923265 177.57542967 -0.7928009 175.60545349 C-0.79570507 171.40795954 -0.80484928 167.21054547 -0.81910515 163.01307487 C-0.84157445 156.37822977 -0.84949319 149.74341322 -0.85560608 143.10853577 C-0.86692649 132.62840216 -0.88761882 122.14831234 -0.91250378 111.66820294 C-0.95708557 92.85283094 -0.98999713 74.0374425 -1.01274782 55.22203165 C-1.02116192 48.6217269 -1.03519 42.02146445 -1.05372036 35.42118061 C-1.06432878 31.33376675 -1.07093379 27.24635332 -1.07652092 23.15892982 C-1.08000308 21.25854466 -1.08522969 19.35816181 -1.09228897 17.45778656 C-1.1016814 14.87365158 -1.1050092 12.2895788 -1.10679626 9.70542908 C-1.11321189 8.56632353 -1.11321189 8.56632353 -1.11975712 7.40420574 C-1.11406484 2.22812968 -1.11406484 2.22812968 0 0 Z " fill="#243859" transform="translate(604,217)"/>
<path d="M0 0 C1.81565436 1.81565436 1.12861899 4.31269962 1.13894653 6.72888184 C1.13591019 7.93042908 1.13591019 7.93042908 1.1328125 9.15625 C1.13376923 9.97371704 1.13472595 10.79118408 1.13571167 11.63342285 C1.13639345 13.36515378 1.13453929 15.09688724 1.13037109 16.82861328 C1.12502279 19.48866482 1.13031612 22.1485475 1.13671875 24.80859375 C1.13605797 26.48697954 1.1347768 28.16536523 1.1328125 29.84375 C1.13483673 30.64478149 1.13686096 31.44581299 1.13894653 32.27111816 C1.11495079 37.88504921 1.11495079 37.88504921 0 39 C-1.70158011 39.0754581 -3.40624711 39.08309543 -5.109375 39.0625 C-6.16801758 39.05387939 -7.22666016 39.04525879 -8.31738281 39.03637695 C-9.45014648 39.02437256 -10.58291016 39.01236816 -11.75 39 C-33.36298302 38.90728608 -54.28174365 39.65978363 -70.80859375 55.5234375 C-80.87578344 66.90061801 -82.44860698 80.85120705 -82.43237305 95.48925781 C-82.44141286 96.89988551 -82.45174543 98.31050542 -82.46325684 99.72111511 C-82.49059294 103.51162732 -82.50007912 107.30198956 -82.50611091 111.09258747 C-82.51555619 115.06843707 -82.54176403 119.0441773 -82.56611633 123.0199585 C-82.609617 130.53126359 -82.63826448 138.04254726 -82.66143972 145.55393958 C-82.68858002 154.11276427 -82.73248571 162.67147803 -82.77772844 171.23022318 C-82.87033906 188.82009148 -82.94212717 206.40998379 -83 224 C-88.96313166 224.02464574 -94.92623395 224.042834 -100.8894043 224.05493164 C-102.91968298 224.05997278 -104.94995802 224.06680557 -106.98022461 224.07543945 C-109.89177347 224.08751467 -112.8032745 224.09323034 -115.71484375 224.09765625 C-117.08514992 224.10539818 -117.08514992 224.10539818 -118.48313904 224.11329651 C-120.65575427 224.11349168 -122.82827296 224.06211805 -125 224 C-126.83612188 222.16387812 -126.12540438 219.58754141 -126.13374341 217.14366865 C-126.13151268 216.29514594 -126.12928196 215.44662322 -126.12698364 214.5723877 C-126.12854363 213.67794087 -126.13010362 212.78349404 -126.13171089 211.86194277 C-126.13572491 208.84088819 -126.13252969 205.81988315 -126.12939453 202.79882812 C-126.13074839 200.64269481 -126.13252824 198.48656172 -126.13470459 196.33042908 C-126.13928071 190.4566358 -126.13748863 184.58285999 -126.1343255 178.70906639 C-126.13180282 172.57691779 -126.13413918 166.44477073 -126.13571167 160.31262207 C-126.13753364 150.01261118 -126.13512635 139.71260746 -126.13037109 129.41259766 C-126.12492842 117.4855131 -126.12669106 105.55844563 -126.1321975 93.63136148 C-126.13672786 83.41145128 -126.13737955 73.19154623 -126.13475883 62.97163534 C-126.13319563 56.85877801 -126.13300345 50.74592872 -126.13629532 44.6330719 C-126.13917292 38.88761656 -126.13720039 33.14218336 -126.13140106 27.39673042 C-126.13007287 25.28147481 -126.13046858 23.16621734 -126.13266373 21.05096245 C-126.13537291 18.17648678 -126.13199696 15.3020833 -126.12698364 12.4276123 C-126.12921436 11.57908959 -126.13144509 10.73056687 -126.13374341 9.85633135 C-126.11414982 4.11414982 -126.11414982 4.11414982 -125 3 C-121.98191937 2.898863 -118.98719487 2.86031091 -115.96875 2.8671875 C-115.06249878 2.86623077 -114.15624756 2.86527405 -113.22253418 2.86428833 C-111.30248953 2.86360647 -109.38244259 2.86546118 -107.46240234 2.86962891 C-104.51264296 2.87497708 -101.56303586 2.86968412 -98.61328125 2.86328125 C-96.75260383 2.86394203 -94.8919265 2.86522319 -93.03125 2.8671875 C-92.14272339 2.86516327 -91.25419678 2.86313904 -90.33874512 2.86105347 C-84.11494988 2.88505012 -84.11494988 2.88505012 -83 4 C-82.84111908 6.28988781 -82.74861927 8.58443441 -82.68359375 10.87890625 C-82.66281265 11.5655687 -82.64203156 12.25223114 -82.62062073 12.95970154 C-82.55505857 15.16052935 -82.49620985 17.36147975 -82.4375 19.5625 C-82.39432108 21.05144514 -82.350707 22.54037773 -82.30664062 24.02929688 C-82.1993707 27.68606553 -82.09812228 31.34297318 -82 35 C-81.29641357 34.09399048 -81.29641357 34.09399048 -80.57861328 33.16967773 C-79.95712402 32.36989502 -79.33563477 31.5701123 -78.6953125 30.74609375 C-78.08187988 29.9564624 -77.46844727 29.16683105 -76.83642578 28.35327148 C-69.01197563 18.32669943 -69.01197563 18.32669943 -64 17 C-64 16.34 -64 15.68 -64 15 C-46.36135511 0.14869653 -22.03071068 -1.76080534 0 0 Z " fill="#243859" transform="translate(930,282)"/>
<path d="M0 0 C0.99773437 0.83917969 0.99773437 0.83917969 2.015625 1.6953125 C5.84140162 6.50338312 5.99912344 12.35351154 5.99050903 18.28453064 C5.99221788 18.99696617 5.99392673 19.7094017 5.99568737 20.44342619 C5.99896171 22.81256798 5.98801285 25.18142174 5.97705078 27.55053711 C5.97648622 29.25598138 5.9768041 30.96142613 5.97793579 32.66687012 C5.97850856 37.28411978 5.96676654 41.90126509 5.95278788 46.51849055 C5.94026786 51.34846766 5.93910901 56.17844728 5.93673706 61.00843811 C5.93052603 70.14908917 5.9141203 79.28969227 5.89403808 88.43032223 C5.87166735 98.83898596 5.8606827 109.24765201 5.85064721 119.6563338 C5.82975376 141.06258262 5.7945851 162.46878828 5.75 183.875 C5.42 183.875 5.09 183.875 4.75 183.875 C4.74453156 183.03054825 4.74453156 183.03054825 4.73895264 182.16903687 C4.69705917 176.29603166 4.62766601 170.42380298 4.54248047 164.55126953 C4.5142994 162.36124447 4.49307066 160.17111823 4.47900391 157.98095703 C4.45753523 154.82792473 4.41086325 151.67610515 4.359375 148.5234375 C4.35753204 147.0605983 4.35753204 147.0605983 4.35565186 145.56820679 C4.22958687 139.683264 3.5632444 136.41418922 -0.25 131.875 C-1.0234375 130.946875 -1.0234375 130.946875 -1.8125 130 C-3.33952163 128.56684587 -3.33952163 128.56684587 -6.25 128.875 C-6.91 127.555 -7.57 126.235 -8.25 124.875 C-9.24 124.875 -10.23 124.875 -11.25 124.875 C-11.4975 124.153125 -11.745 123.43125 -12 122.6875 C-14.26562231 117.5898498 -17.68461088 114.03565401 -22.25 110.875 C-23.24 110.875 -24.23 110.875 -25.25 110.875 C-25.25 110.215 -25.25 109.555 -25.25 108.875 C-25.86875 108.648125 -26.4875 108.42125 -27.125 108.1875 C-29.86410209 106.49570165 -30.30024472 104.88255839 -31.25 101.875 C-31.58 102.535 -31.91 103.195 -32.25 103.875 C-34.25 100.875 -34.25 100.875 -35.25 97.875 C-38.30988328 94.47512969 -41.3140739 92.15369406 -45.25 89.875 C-47.6758975 87.80849472 -48.94928785 85.77658864 -50.25 82.875 C-51.24 82.875 -52.23 82.875 -53.25 82.875 C-53.91 82.215 -54.57 81.555 -55.25 80.875 C-55.91 80.545 -56.57 80.215 -57.25 79.875 C-60.13373397 76.99126603 -61.05708986 74.79456187 -62.25 70.875 C-63.57 70.875 -64.89 70.875 -66.25 70.875 C-68.25 68.875 -68.25 68.875 -69.25 66.875 C-70.24 66.875 -71.23 66.875 -72.25 66.875 C-72.37375 66.070625 -72.4975 65.26625 -72.625 64.4375 C-72.934375 63.1690625 -72.934375 63.1690625 -73.25 61.875 C-73.91 61.545 -74.57 61.215 -75.25 60.875 C-75.58 61.535 -75.91 62.195 -76.25 62.875 C-76.8378125 61.51375 -76.8378125 61.51375 -77.4375 60.125 C-79.34644822 56.70205837 -81.10257742 55.13468801 -84.25 52.875 C-84.91 52.215 -85.57 51.555 -86.25 50.875 C-87.24 50.38 -87.24 50.38 -88.25 49.875 C-88.875 47.8125 -88.875 47.8125 -89.25 45.875 C-89.745 46.865 -89.745 46.865 -90.25 47.875 C-90.518125 47.235625 -90.78625 46.59625 -91.0625 45.9375 C-92.13667752 43.54368314 -92.13667752 43.54368314 -95.25 42.875 C-96.91666667 41.20833333 -98.58333333 39.54166667 -100.25 37.875 C-101.24 37.545 -102.23 37.215 -103.25 36.875 C-104.4375 33.8125 -104.4375 33.8125 -105.25 30.875 C-106.24 30.875 -107.23 30.875 -108.25 30.875 C-108.724375 30.070625 -109.19875 29.26625 -109.6875 28.4375 C-110.98355856 25.7171105 -110.98355856 25.7171105 -113.4375 25.0625 C-114.3346875 24.9696875 -114.3346875 24.9696875 -115.25 24.875 C-114.755 23.39 -114.755 23.39 -114.25 21.875 C-115.9 21.545 -117.55 21.215 -119.25 20.875 C-119.4665625 19.9159375 -119.4665625 19.9159375 -119.6875 18.9375 C-120.06007181 16.89954854 -120.06007181 16.89954854 -121.25 15.875 C-121.86875 15.7925 -122.4875 15.71 -123.125 15.625 C-126.14296563 14.55983566 -126.72113995 12.58525191 -128.25 9.875 C-128.91 9.875 -129.57 9.875 -130.25 9.875 C-131.46875 8.4140625 -131.46875 8.4140625 -132.75 6.5 C-134.17246226 4.39232726 -135.44154973 2.68345027 -137.25 0.875 C-138.24 0.875 -139.23 0.875 -140.25 0.875 C-142.59210921 0.23985174 -144.92684969 -0.4236716 -147.25 -1.125 C-147.25 -1.455 -147.25 -1.785 -147.25 -2.125 C-131.76599207 -3.12650003 -116.30585379 -3.35310074 -100.79296875 -3.4765625 C-98.18890699 -3.49973655 -95.58484716 -3.52312714 -92.98078918 -3.54672241 C-87.56428258 -3.59509815 -82.14775483 -3.63986144 -76.73120117 -3.68261719 C-70.48415853 -3.73199662 -64.23720547 -3.78833861 -57.99025363 -3.84803832 C-51.93917451 -3.90561552 -45.88806117 -3.95731576 -39.83690834 -4.00663376 C-37.27684444 -4.0281613 -34.71679358 -4.0513026 -32.15675926 -4.0760994 C-28.59174925 -4.10997595 -25.02674877 -4.13715785 -21.46166992 -4.16259766 C-20.40970428 -4.17397263 -19.35773865 -4.1853476 -18.27389526 -4.19706726 C-4.86824793 -4.27409169 -4.86824793 -4.27409169 0 0 Z " fill="#1973EE" transform="translate(219.25,357.125)"/>
<path d="M0 0 C1.36560059 0.00303635 1.36560059 0.00303635 2.75878906 0.00613403 C3.68723633 0.00517731 4.61568359 0.00422058 5.57226562 0.00323486 C7.53938871 0.00255298 9.50651403 0.00440781 11.47363281 0.00857544 C14.49581932 0.01392358 17.51785721 0.00863071 20.54003906 0.00222778 C22.44628939 0.00288856 24.35253963 0.00416972 26.25878906 0.00613403 C27.16918945 0.0041098 28.07958984 0.00208557 29.01757812 0 C35.39383938 0.02399685 35.39383938 0.02399685 36.50878906 1.13894653 C36.60892223 3.95612797 36.64318027 6.74886743 36.63577271 9.56655884 C36.6373327 10.46100566 36.63889269 11.35545249 36.64049995 12.27700377 C36.64451397 15.29805835 36.64131876 18.31906338 36.63818359 21.34011841 C36.63953746 23.49625173 36.6413173 25.65238481 36.64349365 27.80851746 C36.64806977 33.68231074 36.64627769 39.55608654 36.64311457 45.42988014 C36.64059188 51.56202875 36.64292825 57.6941758 36.64450073 63.82632446 C36.6463227 74.12633535 36.64391541 84.42633908 36.63916016 94.72634888 C36.63371749 106.65343344 36.63548012 118.5805009 36.64098656 130.50758505 C36.64551693 140.72749526 36.64616862 150.9474003 36.64354789 161.16731119 C36.64198469 167.28016852 36.64179251 173.39301781 36.64508438 179.50587463 C36.64796199 185.25132998 36.64598945 190.99676317 36.64019012 196.74221611 C36.63886193 198.85747173 36.63925764 200.97272919 36.64145279 203.08798409 C36.64416197 205.96245975 36.64078602 208.83686324 36.63577271 211.71133423 C36.63800343 212.55985694 36.64023415 213.40837966 36.64253247 214.28261518 C36.62293889 220.02479671 36.62293889 220.02479671 35.50878906 221.13894653 C32.41797441 221.24011574 29.34996351 221.27863211 26.25878906 221.27175903 C25.3303418 221.27271576 24.40189453 221.27367249 23.4453125 221.2746582 C21.47818942 221.27534008 19.5110641 221.27348525 17.54394531 221.26931763 C14.5217588 221.26396948 11.49972092 221.26926236 8.47753906 221.27566528 C6.57128873 221.2750045 4.6650385 221.27372334 2.75878906 221.27175903 C1.39318848 221.27479538 1.39318848 221.27479538 0 221.27789307 C-6.37626125 221.25389622 -6.37626125 221.25389622 -7.49121094 220.13894653 C-7.5913441 217.3217651 -7.62560214 214.52902564 -7.61819458 211.71133423 C-7.61975457 210.8168874 -7.62131456 209.92244058 -7.62292182 209.0008893 C-7.62693585 205.97983472 -7.62374063 202.95882969 -7.62060547 199.93777466 C-7.62195933 197.78164134 -7.62373918 195.62550825 -7.62591553 193.46937561 C-7.63049165 187.59558233 -7.62869957 181.72180653 -7.62553644 175.84801292 C-7.62301376 169.71586432 -7.62535012 163.58371726 -7.62692261 157.4515686 C-7.62874457 147.15155772 -7.62633729 136.85155399 -7.62158203 126.55154419 C-7.61613936 114.62445963 -7.617902 102.69739216 -7.62340844 90.77030802 C-7.6279388 80.55039781 -7.62859049 70.33049276 -7.62596977 60.11058187 C-7.62440657 53.99772454 -7.62421439 47.88487526 -7.62750626 41.77201843 C-7.63038386 36.02656309 -7.62841132 30.28112989 -7.622612 24.53567696 C-7.6212838 22.42042134 -7.62167951 20.30516388 -7.62387466 18.18990898 C-7.62658385 15.31543332 -7.6232079 12.44102983 -7.61819458 9.56655884 C-7.6204253 8.71803612 -7.62265602 7.86951341 -7.62495434 6.99527788 C-7.6005236 -0.16450403 -7.11128797 0.0267631 0 0 Z " fill="#24395A" transform="translate(709.4912109375,284.8610534667969)"/>
<path d="M0 0 C24.29540904 -0.04669884 48.59081136 -0.08197847 72.88625622 -0.10362434 C84.16678047 -0.11394156 95.44727684 -0.12801042 106.7277832 -0.15087891 C116.55865396 -0.17079913 126.38950453 -0.1837132 136.22039491 -0.18817699 C141.4268594 -0.19078668 146.63326614 -0.19692989 151.83971214 -0.21146011 C156.73896019 -0.22502239 161.63812663 -0.22922537 166.53739166 -0.22621536 C168.33652248 -0.22676613 170.13565599 -0.23075162 171.93477058 -0.23841095 C174.3897757 -0.24835098 176.8444721 -0.24597233 179.29948425 -0.24050903 C180.01252738 -0.24633472 180.7255705 -0.2521604 181.46022099 -0.25816262 C188.71391742 -0.21448694 192.78638753 2.01306633 198 7 C200.76001977 11.535933 201.37245376 14.89920139 201.36076355 20.17538452 C201.36332682 20.87471497 201.3658901 21.57404542 201.36853105 22.2945677 C201.37345165 24.6254907 201.35700528 26.9557583 201.34057617 29.28662109 C201.33972952 30.9623615 201.34020578 32.63810302 201.34190369 34.31384277 C201.34276359 38.85476282 201.32513857 43.39544461 201.30418181 47.93630934 C201.28541426 52.68487302 201.28366451 57.43344231 201.28010559 62.18203735 C201.27078536 71.17046265 201.24617185 80.15877835 201.21605712 89.1471554 C201.18251245 99.38166719 201.16602693 109.61618425 201.15097082 119.85073733 C201.11962231 140.9005527 201.0668622 161.95026944 201 183 C200.34 183 199.68 183 199 183 C198.99191315 182.30731018 198.98382629 181.61462036 198.97549438 180.90093994 C198.88950935 173.69842002 198.79000808 166.49617723 198.68261719 159.29394531 C198.64321989 156.6051811 198.60863212 153.9164185 198.578125 151.22753906 C198.53251623 147.36504669 198.47451385 143.50291003 198.4140625 139.640625 C198.39673569 137.83419525 198.39673569 137.83419525 198.37905884 135.99127197 C198.3492543 134.30998199 198.3492543 134.30998199 198.31884766 132.59472656 C198.29886215 131.11579926 198.29886215 131.11579926 198.2784729 129.60699463 C197.98861773 126.89344201 197.53388932 125.25021752 196 123 C195.01 122.67 194.02 122.34 193 122 C192.67 121.34 192.34 120.68 192 120 C191.01 120.33 190.02 120.66 189 121 C188.87625 120.21625 188.7525 119.4325 188.625 118.625 C188.20882007 115.85942178 188.20882007 115.85942178 186 114 C185.67 114.66 185.34 115.32 185 116 C184.67 114.68 184.34 113.36 184 112 C183.01 112 182.02 112 181 112 C180.71125 111.38125 180.4225 110.7625 180.125 110.125 C179.06279958 107.86674235 179.06279958 107.86674235 177 106 C175.30780425 104.02064376 173.65861093 102.00779218 172 100 C171.01 100.495 171.01 100.495 170 101 C168.25728062 98.702779 166.60088848 96.40133271 165 94 C164.01 94 163.02 94 162 94 C161.67 93.34 161.34 92.68 161 92 C159.34997172 90.64613064 157.6825613 89.31321858 156 88 C154.04783565 86.04783565 153.15173355 84.46800047 152 82 C151.34 82 150.68 82 150 82 C149.34 81.01 148.68 80.02 148 79 C147.01 79 146.02 79 145 79 C144.67 78.34 144.34 77.68 144 77 C142.12291803 75.06034863 140.19283132 73.18594449 138.25 71.3125 C137 70 137 70 137 69 C136.05125 68.38125 135.1025 67.7625 134.125 67.125 C131 65 131 65 129 62 C128.01 62 127.02 62 126 62 C125.01 60.02 125.01 60.02 124 58 C123.01 58 122.02 58 121 58 C120.505 56.02 120.505 56.02 120 54 C119.505 54.99 119.505 54.99 119 56 C118.67 55.01 118.34 54.02 118 53 C116.37550757 51.29220027 114.70779973 49.62449243 113 48 C112.34 47.34 111.68 46.68 111 46 C110.01 46 109.02 46 108 46 C107.773125 45.443125 107.54625 44.88625 107.3125 44.3125 C105.27337263 40.71975177 102.79348156 37.54800825 98.75 36.3125 C98.1725 36.209375 97.595 36.10625 97 36 C96.67 35.34 96.34 34.68 96 34 C95.34 33.67 94.68 33.34 94 33 C93.67 32.01 93.34 31.02 93 30 C92.01 30 91.02 30 90 30 C89.62875 29.0409375 89.62875 29.0409375 89.25 28.0625 C88.18437567 25.81258459 88.18437567 25.81258459 85.875 25.25 C85.25625 25.1675 84.6375 25.085 84 25 C84 22 84 22 85 21 C80.60746227 19.43727811 80.60746227 19.43727811 76 19 C76 18.01 76 17.02 76 16 C75.02149805 14.97895449 74.02019573 13.9793879 73 13 C72.505 11.515 72.505 11.515 72 10 C71.34 10.33 70.68 10.66 70 11 C69.566875 10.175 69.13375 9.35 68.6875 8.5 C68.130625 7.675 67.57375 6.85 67 6 C66.01 6 65.02 6 64 6 C63.01 5.34 62.02 4.68 61 4 C61 3.34 61 2.68 61 2 C40.87 2 20.74 2 0 2 C0 1.34 0 0.68 0 0 Z M94 28 C95 30 95 30 95 30 Z M109 42 C110 44 110 44 110 44 Z M185 110 C186 112 186 112 186 112 Z " fill="#1970E8" transform="translate(116,267)"/>
<path d="M0 0 C0.66515625 0.55945313 1.3303125 1.11890625 2.015625 1.6953125 C5.84140162 6.50338312 5.99912344 12.35351154 5.99050903 18.28453064 C5.99221788 18.99696617 5.99392673 19.7094017 5.99568737 20.44342619 C5.99896171 22.81256798 5.98801285 25.18142174 5.97705078 27.55053711 C5.97648622 29.25598138 5.9768041 30.96142613 5.97793579 32.66687012 C5.97850856 37.28411978 5.96676654 41.90126509 5.95278788 46.51849055 C5.94026786 51.34846766 5.93910901 56.17844728 5.93673706 61.00843811 C5.93052603 70.14908917 5.9141203 79.28969227 5.89403808 88.43032223 C5.87166735 98.83898596 5.8606827 109.24765201 5.85064721 119.6563338 C5.82975376 141.06258262 5.7945851 162.46878828 5.75 183.875 C5.42 183.875 5.09 183.875 4.75 183.875 C4.74191315 182.58904938 4.73382629 181.30309875 4.72549438 179.97817993 C4.64813901 167.88204147 4.56042692 155.78601696 4.46247292 143.69002724 C4.41244477 137.4707832 4.36611544 131.2515567 4.328125 125.03222656 C4.29135441 119.03456232 4.2450172 113.03704249 4.19193649 107.03950119 C4.17334868 104.74690652 4.1582571 102.45428084 4.14665604 100.16164017 C4.12986848 96.95998472 4.10085193 93.7586632 4.06884766 90.55712891 C4.06668747 89.60119339 4.06452728 88.64525787 4.06230164 87.66035461 C4.05113815 86.79094742 4.03997467 85.92154022 4.0284729 85.02578735 C4.02294214 84.26807352 4.01741138 83.51035969 4.01171303 82.72968483 C3.90487514 80.62896189 3.90487514 80.62896189 1.75 78.875 C1.2859375 77.451875 1.2859375 77.451875 0.8125 76 C-0.19030738 73.05056654 -1.25887882 71.22814321 -3.25 68.875 C-3.91 69.535 -4.57 70.195 -5.25 70.875 C-6.24 70.875 -7.23 70.875 -8.25 70.875 C-11.16139241 65.30537975 -11.16139241 65.30537975 -11.6875 62.75 C-12.49270313 60.06598955 -14.20699266 58.72029695 -16.25 56.875 C-17.24 57.865 -17.24 57.865 -18.25 58.875 C-18.745 56.895 -18.745 56.895 -19.25 54.875 C-19.58 56.195 -19.91 57.515 -20.25 58.875 C-24.1165284 55.652893 -25.13059018 52.72577588 -26.25 47.875 C-27.24 48.37 -27.24 48.37 -28.25 48.875 C-29.3946875 47.6375 -29.3946875 47.6375 -30.5625 46.375 C-33.00434142 43.53444803 -33.00434142 43.53444803 -36.25 43.875 C-38.4375 41.375 -38.4375 41.375 -40.25 38.875 C-39.59 37.225 -38.93 35.575 -38.25 33.875 C-38.91 33.875 -39.57 33.875 -40.25 33.875 C-41.24 34.865 -41.24 34.865 -42.25 35.875 C-42.62125 35.441875 -42.9925 35.00875 -43.375 34.5625 C-45.79427049 32.38515656 -48.26422518 31.14554248 -51.25 29.875 C-52.24 30.37 -52.24 30.37 -53.25 30.875 C-53.683125 30.38 -54.11625 29.885 -54.5625 29.375 C-56.24740483 27.54281808 -56.24740483 27.54281808 -59.25 27.875 C-58.59 25.565 -57.93 23.255 -57.25 20.875 C-58.178125 20.00875 -58.178125 20.00875 -59.125 19.125 C-61.25 16.875 -61.25 16.875 -62.125 14.6875 C-62.49625 14.089375 -62.8675 13.49125 -63.25 12.875 C-64.673125 12.75125 -64.673125 12.75125 -66.125 12.625 C-69.25 11.875 -69.25 11.875 -70.53125 10.04296875 C-71.52705878 8.01223013 -72.43340789 5.98372903 -73.25 3.875 C-74.57 3.875 -75.89 3.875 -77.25 3.875 C-77.25 2.885 -77.25 1.895 -77.25 0.875 C-77.91 0.545 -78.57 0.215 -79.25 -0.125 C-79.91 0.205 -80.57 0.535 -81.25 0.875 C-81.745 -0.115 -81.745 -0.115 -82.25 -1.125 C-92.81 -1.455 -103.37 -1.785 -114.25 -2.125 C-114.25 -2.455 -114.25 -2.785 -114.25 -3.125 C-100.79377232 -3.27889445 -87.33749501 -3.4270753 -73.8811245 -3.5679636 C-67.63279145 -3.63356321 -61.38449258 -3.70113022 -55.13623047 -3.77319336 C-49.10626078 -3.84266648 -43.07625609 -3.90697173 -37.04619217 -3.96769524 C-34.7456932 -3.99176959 -32.44521293 -4.01770557 -30.14475632 -4.04553413 C-26.92254306 -4.0841951 -23.70032682 -4.11623508 -20.47802734 -4.14672852 C-19.52712219 -4.15967453 -18.57621704 -4.17262054 -17.59649658 -4.18595886 C-4.88326403 -4.28727511 -4.88326403 -4.28727511 0 0 Z " fill="#095FD9" transform="translate(219.25,357.125)"/>
<path d="M0 0 C2.32062091 4.29443182 2.2390842 8.42792635 2.13525391 13.18676758 C2.12579239 13.99704407 2.11633087 14.80732056 2.10658264 15.64215088 C2.07301095 18.30984585 2.02486703 20.97706579 1.9765625 23.64453125 C1.95038443 25.4982531 1.9251183 27.35198804 1.90072632 29.20573425 C1.83418266 34.0769816 1.7552666 38.9479527 1.67376709 43.81896973 C1.59274225 48.79261702 1.52342737 53.76642601 1.453125 58.74023438 C1.31353948 68.49368339 1.1608819 78.24688065 1 88 C0.67 88 0.34 88 0 88 C-0.02505615 87.36908447 -0.0501123 86.73816895 -0.07592773 86.08813477 C-0.19154137 83.24603175 -0.31442316 80.40428917 -0.4375 77.5625 C-0.47681641 76.56927734 -0.51613281 75.57605469 -0.55664062 74.55273438 C-0.59853516 73.60849609 -0.64042969 72.66425781 -0.68359375 71.69140625 C-0.72025146 70.81685791 -0.75690918 69.94230957 -0.79467773 69.04125977 C-0.78181066 67.0072598 -0.78181066 67.0072598 -2 66 C-2.66 66.66 -3.32 67.32 -4 68 C-3.938125 67.071875 -3.87625 66.14375 -3.8125 65.1875 C-3.71722131 62.05517266 -3.71722131 62.05517266 -5.3125 60.125 C-7.07800472 58.7226499 -7.07800472 58.7226499 -10 59 C-10.66 59 -11.32 59 -12 59 C-11.67 57.68 -11.34 56.36 -11 55 C-11.598125 55.165 -12.19625 55.33 -12.8125 55.5 C-15 56 -15 56 -18 56 C-20.5654594 53.4345406 -20.54046087 51.52313332 -21 48 C-21.66 48 -22.32 48 -23 48 C-23.33 47.01 -23.66 46.02 -24 45 C-24.99 45 -25.98 45 -27 45 C-29.69059325 42.93031289 -30.27108262 41.22806269 -31 38 C-31.66 37.34 -32.32 36.68 -33 36 C-33.66 37.32 -34.32 38.64 -35 40 C-35.268125 39.4225 -35.53625 38.845 -35.8125 38.25 C-37.43033398 35.18463035 -39.49740528 32.61428243 -41.6875 29.9375 C-43 28 -43 28 -43 25 C-44.32 25.33 -45.64 25.66 -47 26 C-47.495 24.02 -47.495 24.02 -48 22 C-48.61875 21.9175 -49.2375 21.835 -49.875 21.75 C-52 21 -52 21 -53.0625 19 C-53.371875 18.34 -53.68125 17.68 -54 17 C-54.99 16.67 -55.98 16.34 -57 16 C-57 15.34 -57 14.68 -57 14 C-59.31 13.67 -61.62 13.34 -64 13 C-64.33 12.01 -64.66 11.02 -65 10 C-64.34 9.34 -63.68 8.68 -63 8 C-67.81209901 5.70954986 -67.81209901 5.70954986 -73 5 C-73.226875 4.21625 -73.45375 3.4325 -73.6875 2.625 C-74.75563972 -0.1376793 -74.75563972 -0.1376793 -77.1875 -1.1875 C-78.115625 -1.455625 -79.04375 -1.72375 -80 -2 C-81.258125 -2.37125 -82.51625 -2.7425 -83.8125 -3.125 C-84.864375 -3.41375 -85.91625 -3.7025 -87 -4 C-87 -4.33 -87 -4.66 -87 -5 C-77.17727273 -5.1539507 -67.35447694 -5.30213101 -57.53155231 -5.4429636 C-52.97028656 -5.50854003 -48.40906812 -5.57609699 -43.84790039 -5.64819336 C-39.44539931 -5.71770866 -35.04285 -5.78200424 -30.64021873 -5.84269524 C-28.96129786 -5.86675417 -27.28240275 -5.89268764 -25.60354042 -5.92053413 C-23.25046439 -5.95924197 -20.8973846 -5.991259 -18.54418945 -6.02172852 C-17.50516983 -6.04114754 -17.50516983 -6.04114754 -16.44515991 -6.06095886 C-9.08382076 -6.14113237 -5.37887167 -5.25934119 0 0 Z " fill="#0A5FD9" transform="translate(314,274)"/>
<path d="M0 0 C3.18742115 -0.05865035 6.37470118 -0.09381259 9.5625 -0.125 C10.45775391 -0.14175781 11.35300781 -0.15851563 12.27539062 -0.17578125 C17.61802169 -0.2149214 21.94956496 0.24502257 27 2 C27.99 2.33 28.98 2.66 30 3 C30.66 2.67 31.32 2.34 32 2 C32.2475 2.804375 32.495 3.60875 32.75 4.4375 C33.1625 5.283125 33.575 6.12875 34 7 C36.01508358 7.73323796 36.01508358 7.73323796 38 8 C38.495 8.99 38.495 8.99 39 10 C39.66 9.67 40.32 9.34 41 9 C43 11 43 11 45 14 C44.67 14.99 44.34 15.98 44 17 C44.598125 17.144375 45.19625 17.28875 45.8125 17.4375 C47.56150404 17.8872439 49.28677023 18.42892341 51 19 C51.495 19.99 51.495 19.99 52 21 C52.97850195 22.02104551 53.97980427 23.0206121 55 24 C55.66 24.66 56.32 25.32 57 26 C57.99 26.33 58.98 26.66 60 27 C61 28 61 28 62 30 C62.66 30 63.32 30 64 30 C64.226875 30.763125 64.45375 31.52625 64.6875 32.3125 C66.28532265 35.58423209 67.86673322 36.27670327 71 38 C71.66 38.99 72.32 39.98 73 41 C73.99 41 74.98 41 76 41 C77.0625 42.875 77.0625 42.875 78 45 C77.505 45.99 77.505 45.99 77 47 C78.32 47 79.64 47 81 47 C82.9375 48.6875 82.9375 48.6875 85 51 C85.86625 51.825 86.7325 52.65 87.625 53.5 C89.68207051 55.66533738 90.88805152 57.2706719 92 60 C93.32 59.67 94.64 59.34 96 59 C96 59.99 96 60.98 96 62 C96.99 62 97.98 62 99 62 C103.19134903 65.6802089 105.26553914 68.79661742 107 74 C107.33 52.88 107.66 31.76 108 10 C108.99 10.495 108.99 10.495 110 11 C110 67.1 110 123.2 110 181 C109.34 181 108.68 181 108 181 C107.99191315 180.30731018 107.98382629 179.61462036 107.97549438 178.90093994 C107.88950935 171.69842002 107.79000808 164.49617723 107.68261719 157.29394531 C107.64321989 154.6051811 107.60863212 151.9164185 107.578125 149.22753906 C107.53251623 145.36504669 107.47451385 141.50291003 107.4140625 137.640625 C107.40251129 136.4363385 107.39096008 135.232052 107.37905884 133.99127197 C107.35918915 132.87041199 107.33931946 131.749552 107.31884766 130.59472656 C107.30552399 129.60877502 107.29220032 128.62282349 107.2784729 127.60699463 C106.98861773 124.89344201 106.53388932 123.25021752 105 121 C103.515 120.505 103.515 120.505 102 120 C101.67 119.34 101.34 118.68 101 118 C99.515 118.495 99.515 118.495 98 119 C97.87625 118.21625 97.7525 117.4325 97.625 116.625 C97.20882007 113.85942178 97.20882007 113.85942178 95 112 C94.67 112.66 94.34 113.32 94 114 C93.67 113.01 93.34 112.02 93 111 C93.99 110.67 94.98 110.34 96 110 C96 109.34 96 108.68 96 108 C96.66 108.33 97.32 108.66 98 109 C98.66 109.144375 99.32 109.28875 100 109.4375 C102.35304931 110.09929512 103.30748023 111.30748023 105 113 C105.66 112.67 106.32 112.34 107 112 C107 106.72 107 101.44 107 96 C105.515 96.495 105.515 96.495 104 97 C104 95.35 104 93.7 104 92 C102.68 92 101.36 92 100 92 C98 89 98 89 98 86 C97.34 85.67 96.68 85.34 96 85 C95.34 85.66 94.68 86.32 94 87 C93.34 85.35 92.68 83.7 92 82 C91.34 82 90.68 82 90 82 C90 81.34 90 80.68 90 80 C88.515 79.505 88.515 79.505 87 79 C87 78.34 87 77.68 87 77 C86.360625 76.731875 85.72125 76.46375 85.0625 76.1875 C83 75 83 75 82 72 C80.18731595 71.30748793 80.18731595 71.30748793 78.0625 71 C75.91015625 70.625 75.91015625 70.625 74 70 C73.34 69.01 72.68 68.02 72 67 C71.34 66.34 70.68 65.68 70 65 C68.75806452 60.48387097 68.75806452 60.48387097 70 58 C69.443125 58.268125 68.88625 58.53625 68.3125 58.8125 C67.549375 58.874375 66.78625 58.93625 66 59 C64.29220027 57.37550757 62.62449243 55.70779973 61 54 C60.01 54 59.02 54 58 54 C57.814375 53.21625 57.62875 52.4325 57.4375 51.625 C56.16780953 48.62871091 56.16780953 48.62871091 52.5 47.6875 C49.2673976 46.93575157 49.2673976 46.93575157 47 47 C46.7525 46.05125 46.505 45.1025 46.25 44.125 C44.82576013 40.56440032 44.28284113 40.48257341 41 39 C40.25 36.875 40.25 36.875 40 35 C39.01 35 38.02 35 37 35 C36.67 34.01 36.34 33.02 36 32 C36.66 31.01 37.32 30.02 38 29 C37.01 29.33 36.02 29.66 35 30 C34.36384766 29.35224609 34.36384766 29.35224609 33.71484375 28.69140625 C32.04364808 27.04305153 30.33253824 25.47889188 28.5625 23.9375 C27.98628906 23.43089844 27.41007812 22.92429687 26.81640625 22.40234375 C24.96035067 20.96938901 23.09957585 20.02791734 21 19 C20.484375 18.46375 19.96875 17.9275 19.4375 17.375 C17.97021721 15.65438868 17.97021721 15.65438868 15 16 C14.01 13.69 13.02 11.38 12 9 C11.34 9 10.68 9 10 9 C10 8.01 10 7.02 10 6 C9.01 7.485 9.01 7.485 8 9 C7 6 7 6 7 4 C5.02 4.99 5.02 4.99 3 6 C2.67 5.01 2.34 4.02 2 3 C1.34 2.67 0.68 2.34 0 2 C0 1.34 0 0.68 0 0 Z " fill="#1169E3" transform="translate(207,269)"/>
<path d="M0 0 C0.825 0.391875 1.65 0.78375 2.5 1.1875 C2.995 1.455625 3.49 1.72375 4 2 C4 2.66 4 3.32 4 4 C4.5775 4.226875 5.155 4.45375 5.75 4.6875 C10.47882934 7.44598378 12.75013085 11.80010979 14.45703125 16.8359375 C16.3821244 24.50861094 14.75344033 31.14445163 11 38 C6.07870357 45.07740898 0.17446063 49.25189073 -8 52 C-18.4558376 53.01719687 -26.22760939 51.8482604 -35 46 C-35 45.34 -35 44.68 -35 44 C-35.99 43.67 -36.98 43.34 -38 43 C-42.96241345 36.86327497 -45.84589479 29.90339589 -46 22 C-44.96011719 14.0417132 -42.35172309 8.39467121 -35.921875 3.37890625 C-25.23653766 -4.19896053 -11.95913439 -5.75810174 0 0 Z " fill="#243859" transform="translate(740,204)"/>
<path d="M0 0 C0.99 0 1.98 0 3 0 C3.66 0.66 4.32 1.32 5 2 C5.65484375 2.11214844 6.3096875 2.22429687 6.984375 2.33984375 C9 3 9 3 10.265625 5.06640625 C10.75289062 6.30197266 10.75289062 6.30197266 11.25 7.5625 C11.58515625 8.38878906 11.9203125 9.21507812 12.265625 10.06640625 C12.50796875 10.70449219 12.7503125 11.34257812 13 12 C13.66 12 14.32 12 15 12 C15.495 12.99 15.495 12.99 16 14 C16.99 14 17.98 14 19 14 C21.9564588 16.9564588 24.33705088 20.14595483 26 24 C25.3125 27.5 25.3125 27.5 24 30 C24.99 30 25.98 30 27 30 C27.66 30 28.32 30 29 30 C29.495 30.99 29.495 30.99 30 32 C30.598125 31.773125 31.19625 31.54625 31.8125 31.3125 C32.534375 31.209375 33.25625 31.10625 34 31 C34.433125 31.45375 34.86625 31.9075 35.3125 32.375 C37.86719819 34.83507974 40.57086971 34.67649714 44 35 C44 37.33333333 44 39.66666667 44 42 C46.8424854 43.57273568 46.8424854 43.57273568 50 44 C50.804375 44.825 51.60875 45.65 52.4375 46.5 C54.76122416 49.34916193 54.76122416 49.34916193 58 49 C58 49.99 58 50.98 58 52 C58.31088368 53.67099977 58.64080332 55.33871537 59 57 C59.66 57 60.32 57 61 57 C61.33 57.33 61.66 57.66 62 58 C62.99 57.01 62.99 57.01 64 56 C64.33 56.99 64.66 57.98 65 59 C65.99 59 66.98 59 68 59 C71.31308503 63.3170502 74 67.47123989 74 73 C74.99 73 75.98 73 77 73 C77.495 71.515 77.495 71.515 78 70 C81 71 81 71 82.0625 72.625 C83.27202698 75.68913501 84.10342384 78.83209757 85 82 C85.33 82.33 85.66 82.66 86 83 C86.08748207 84.92667507 86.10697334 86.85651861 86.09765625 88.78515625 C86.09282227 90.53989258 86.09282227 90.53989258 86.08789062 92.33007812 C86.07532227 94.17762695 86.07532227 94.17762695 86.0625 96.0625 C86.05798828 97.29806641 86.05347656 98.53363281 86.04882812 99.80664062 C86.03699608 102.87114117 86.02051173 105.93554721 86 109 C85.67 109 85.34 109 85 109 C84.5978125 107.63875 84.5978125 107.63875 84.1875 106.25 C83.08378891 103.22931703 82.21430079 101.29946621 80 99 C78.01224124 98.02266343 78.01224124 98.02266343 76 98 C75.34 98.66 74.68 99.32 74 100 C71 96.25 71 96.25 71 94 C69.02 93.01 69.02 93.01 67 92 C67.495 90.02 67.495 90.02 68 88 C67.071875 87.87625 66.14375 87.7525 65.1875 87.625 C62 87 62 87 59 85 C58.34 84.01 57.68 83.02 57 82 C54.21445047 78.0615125 54.21445047 78.0615125 50 76 C49.34 75.01 48.68 74.02 48 73 C47.525625 72.54625 47.05125 72.0925 46.5625 71.625 C45 70 45 70 43.625 67.5 C41.75780806 64.62739702 39.96008235 63.63583498 37 62 C36.67 61.34 36.34 60.68 36 60 C35.01 59.67 34.02 59.34 33 59 C32.67 58.01 32.34 57.02 32 56 C28.54923283 52.68588086 28.54923283 52.68588086 24 52 C23.71125 51.030625 23.4225 50.06125 23.125 49.0625 C22.35785318 45.89335797 22.35785318 45.89335797 20 45 C19.87625 44.05125 19.7525 43.1025 19.625 42.125 C19.30190897 38.9017456 19.30190897 38.9017456 16.9375 37.125 C16.298125 36.75375 15.65875 36.3825 15 36 C14.01 36.495 14.01 36.495 13 37 C12.67 36.01 12.34 35.02 12 34 C11.01 34.99 10.02 35.98 9 37 C8.87625 36.360625 8.7525 35.72125 8.625 35.0625 C8.41875 34.381875 8.2125 33.70125 8 33 C7.01 32.505 7.01 32.505 6 32 C5.67 32.66 5.34 33.32 5 34 C3.15172566 30.3874638 1.44950455 26.7910119 0 23 C-0.66 23 -1.32 23 -2 23 C-2.598125 22.360625 -3.19625 21.72125 -3.8125 21.0625 C-6.26700181 18.74825544 -7.70523261 18.36608527 -11 18 C-11 17.01 -11 16.02 -11 15 C-12.32 14.67 -13.64 14.34 -15 14 C-15.33 12.35 -15.66 10.7 -16 9 C-16.66 9.66 -17.32 10.32 -18 11 C-18 10.01 -18 9.02 -18 8 C-18.66 7.67 -19.32 7.34 -20 7 C-20 6.34 -20 5.68 -20 5 C-20.99 5.33 -21.98 5.66 -23 6 C-23.66 4.35 -24.32 2.7 -25 1 C-16.65380825 -0.19231311 -8.40894551 -0.08503428 0 0 Z " fill="#1169E3" transform="translate(137,355)"/>
<path d="M0 0 C5.45000747 0.13625019 8.27512313 2.46396015 12.265625 5.8203125 C16.09140162 10.62838312 16.24912344 16.47851154 16.24050903 22.40953064 C16.24221788 23.12196617 16.24392673 23.8344017 16.24568737 24.56842619 C16.24896171 26.93756798 16.23801285 29.30642174 16.22705078 31.67553711 C16.22648622 33.38098138 16.2268041 35.08642613 16.22793579 36.79187012 C16.22850856 41.40911978 16.21676654 46.02626509 16.20278788 50.64349055 C16.19026786 55.47346766 16.18910901 60.30344728 16.18673706 65.13343811 C16.18052603 74.27408917 16.1641203 83.41469227 16.14403808 92.55532223 C16.12166735 102.96398596 16.1106827 113.37265201 16.10064721 123.7813338 C16.07975376 145.18758262 16.0445851 166.59378828 16 188 C15.67 188 15.34 188 15 188 C15.00056554 186.96328266 15.00056554 186.96328266 15.0011425 185.90562153 C15.00825976 169.08811061 14.98236193 152.27100757 14.9197216 135.45361805 C14.89022515 127.3208171 14.87190166 119.18827757 14.87988281 111.05541992 C14.88681092 103.9667424 14.87277349 96.87846944 14.83356392 89.78989142 C14.8135342 86.03642753 14.80400132 82.28359893 14.81957626 78.53009987 C14.83657178 74.33957229 14.80675899 70.15063073 14.77294922 65.96020508 C14.79128059 64.0936451 14.79128059 64.0936451 14.8099823 62.18937683 C14.91312689 56.29844662 14.91312689 56.29844662 12.61285782 51.09271812 C10.83304642 49.50430416 10.83304642 49.50430416 8 48 C7.67 48.99 7.34 49.98 7 51 C7 50.01 7 49.02 7 48 C6.01 47.505 6.01 47.505 5 47 C3.875 44.9375 3.875 44.9375 3 43 C1.68 43 0.36 43 -1 43 C-2.65 40.03 -4.3 37.06 -6 34 C-6.495 34.99 -6.495 34.99 -7 36 C-7.66 36 -8.32 36 -9 36 C-11.49818944 33.18953688 -13.4722133 30.43752007 -15 27 C-15.495 27.495 -15.495 27.495 -16 28 C-18.52588702 25.63707344 -19.88820837 24.33537489 -21 21 C-25.43356162 16.83385768 -25.43356162 16.83385768 -30.9375 14.625 C-33.4570982 13.86148539 -34.46954079 13.1426429 -36 11 C-36.1875 8.3125 -36.1875 8.3125 -36 6 C-38.76264289 5.40267181 -41.16032769 5 -44 5 C-46.34210921 4.36485174 -48.67684969 3.7013284 -51 3 C-51 2.67 -51 2.34 -51 2 C-34.17 2 -17.34 2 0 2 C0 1.34 0 0.68 0 0 Z " fill="#0656CA" transform="translate(209,353)"/>
<path d="M0 0 C7.33232678 -0.05067793 14.66460844 -0.08572428 21.99707031 -0.10986328 C24.49187915 -0.11992561 26.98667618 -0.13357679 29.48144531 -0.15087891 C33.06578484 -0.17511668 36.64996853 -0.18648082 40.234375 -0.1953125 C41.35116638 -0.20563507 42.46795776 -0.21595764 43.61859131 -0.22659302 C44.65936829 -0.22674408 45.70014526 -0.22689514 46.77246094 -0.22705078 C47.68735291 -0.231492 48.60224487 -0.23593323 49.54486084 -0.24050903 C52.13932269 0.01364825 53.76969393 0.68601902 56 2 C56 2.66 56 3.32 56 4 C56.61875 4.103125 57.2375 4.20625 57.875 4.3125 C60 5 60 5 62 8 C62.24050903 9.99320984 62.24050903 9.99320984 62.22705078 12.2878418 C62.22689972 13.14850754 62.22674866 14.00917328 62.22659302 14.8959198 C62.21627045 15.82100845 62.20594788 16.74609711 62.1953125 17.69921875 C62.1924826 18.64940384 62.18965271 19.59958893 62.18673706 20.5785675 C62.17553715 23.61500615 62.15043288 26.65115042 62.125 29.6875 C62.11496996 31.74543845 62.10584415 33.80338152 62.09765625 35.86132812 C62.07559842 40.9076656 62.04106982 45.95378288 62 51 C61.505 49.02 61.505 49.02 61 47 C60.34 47 59.68 47 59 47 C57.66666667 45.66666667 56.33333333 44.33333333 55 43 C54.34 43 53.68 43 53 43 C53 42.01 53 41.02 53 40 C51.68 40 50.36 40 49 40 C47.62131719 38.37064759 46.28725907 36.70250393 45 35 C44.01 34.67 43.02 34.34 42 34 C40.6459068 32.01399663 39.31542376 30.01182457 38 28 C34.38118426 23.98996094 30.48714187 20.96320689 26 18 C25.34 18 24.68 18 24 18 C23.34 17.01 22.68 16.02 22 15 C21.01 15 20.02 15 19 15 C19 13 19 11 19 9 C18.01 8.67 17.02 8.34 16 8 C15.67 8.66 15.34 9.32 15 10 C14.34 9.01 13.68 8.02 13 7 C12.01 7 11.02 7 10 7 C9.34 6.34 8.68 5.68 8 5 C8.66 5 9.32 5 10 5 C7.80202597 2.80202597 6.82453855 2.54102483 3.875 1.875 C2.59625 1.58625 1.3175 1.2975 0 1 C0 0.67 0 0.34 0 0 Z " fill="#0255D0" transform="translate(252,269)"/>
<path d="M0 0 C23.76 0 47.52 0 72 0 C72 0.99 72 1.98 72 3 C72.99 3.66 73.98 4.32 75 5 C74.34 5 73.68 5 73 5 C74.32 6.32 75.64 7.64 77 9 C77.66 8.67 78.32 8.34 79 8 C79.433125 8.78375 79.86625 9.5675 80.3125 10.375 C82.4433832 13.68970719 84.2866609 14.7622203 88 16 C88.495 17.485 88.495 17.485 89 19 C91.38165147 22.36716243 93.21305458 24.39341709 97 26 C99.6875 27.3125 99.6875 27.3125 102 29 C102.8125 31.6875 102.8125 31.6875 103 34 C103.99 34 104.98 34 106 34 C106.33 34.66 106.66 35.32 107 36 C109.36841639 37.97368032 111.04152015 39.01384005 114 40 C113.505 40.99 113.505 40.99 113 42 C113.33 42.33 113.66 42.66 114 43 C114.33 43.66 114.66 44.32 115 45 C117.52733235 45.65555119 117.52733235 45.65555119 120 46 C120.33 46.99 120.66 47.98 121 49 C122.64821244 50.03013277 124.31503702 51.03114628 126 52 C126.33 52.66 126.66 53.32 127 54 C128.11794315 55.03108541 129.26816775 56.02758233 130.4375 57 C133.43630082 59.50421781 135.80943154 61.71414731 138 65 C136.3125 65.8125 136.3125 65.8125 134 66 C132.29220027 64.37550757 130.62449243 62.70779973 129 61 C128.01 61 127.02 61 126 61 C125.01 59.02 125.01 59.02 124 57 C123.01 57 122.02 57 121 57 C120.505 55.02 120.505 55.02 120 53 C119.505 53.99 119.505 53.99 119 55 C118.67 54.01 118.34 53.02 118 52 C116.37550757 50.29220027 114.70779973 48.62449243 113 47 C112.34 46.34 111.68 45.68 111 45 C110.01 45 109.02 45 108 45 C107.773125 44.443125 107.54625 43.88625 107.3125 43.3125 C105.27337263 39.71975177 102.79348156 36.54800825 98.75 35.3125 C98.1725 35.209375 97.595 35.10625 97 35 C96.67 34.34 96.34 33.68 96 33 C95.34 32.67 94.68 32.34 94 32 C93.505 30.515 93.505 30.515 93 29 C92.01 29 91.02 29 90 29 C89.62875 28.0409375 89.62875 28.0409375 89.25 27.0625 C88.18437567 24.81258459 88.18437567 24.81258459 85.875 24.25 C85.25625 24.1675 84.6375 24.085 84 24 C84 21 84 21 85 20 C80.60746227 18.43727811 80.60746227 18.43727811 76 18 C76 17.01 76 16.02 76 15 C75.02149805 13.97895449 74.02019573 12.9793879 73 12 C72.505 10.515 72.505 10.515 72 9 C71.34 9.33 70.68 9.66 70 10 C69.566875 9.175 69.13375 8.35 68.6875 7.5 C68.130625 6.675 67.57375 5.85 67 5 C66.01 5 65.02 5 64 5 C63.01 4.34 62.02 3.68 61 3 C61 2.34 61 1.68 61 1 C40.87 1 20.74 1 0 1 C0 0.67 0 0.34 0 0 Z M94 27 C95 29 95 29 95 29 Z M109 41 C110 43 110 43 110 43 Z " fill="#1C77F2" transform="translate(116,268)"/>
<path d="M0 0 C0.66 0.33 1.32 0.66 2 1 C2 57.1 2 113.2 2 171 C1.34 171 0.68 171 0 171 C-0.00808685 170.30731018 -0.01617371 169.61462036 -0.02450562 168.90093994 C-0.11049065 161.69842002 -0.20999192 154.49617723 -0.31738281 147.29394531 C-0.35678011 144.6051811 -0.39136788 141.9164185 -0.421875 139.22753906 C-0.46748377 135.36504669 -0.52548615 131.50291003 -0.5859375 127.640625 C-0.59748871 126.4363385 -0.60903992 125.232052 -0.62094116 123.99127197 C-0.64081085 122.87041199 -0.66068054 121.749552 -0.68115234 120.59472656 C-0.69447601 119.60877502 -0.70779968 118.62282349 -0.7215271 117.60699463 C-1.01138227 114.89344201 -1.46611068 113.25021752 -3 111 C-3.99 110.67 -4.98 110.34 -6 110 C-6.33 109.34 -6.66 108.68 -7 108 C-8.485 108.495 -8.485 108.495 -10 109 C-10.12375 108.21625 -10.2475 107.4325 -10.375 106.625 C-10.79117993 103.85942178 -10.79117993 103.85942178 -13 102 C-13.495 102.99 -13.495 102.99 -14 104 C-14.33 103.01 -14.66 102.02 -15 101 C-13.515 100.505 -13.515 100.505 -12 100 C-12 99.34 -12 98.68 -12 98 C-11.34 98.33 -10.68 98.66 -10 99 C-9.34 99.144375 -8.68 99.28875 -8 99.4375 C-5.64695069 100.09929512 -4.69251977 101.30748023 -3 103 C-2.01 102.505 -2.01 102.505 -1 102 C-0.67 68.34 -0.34 34.68 0 0 Z " fill="#1D68CE" transform="translate(315,279)"/>
<path d="M0 0 C1.98 0 3.96 0 6 0 C6 1.32 6 2.64 6 4 C3.03 3.505 3.03 3.505 0 3 C0 2.01 0 1.02 0 0 Z " fill="#2076E9" transform="translate(389,179)"/>
</svg>
