<svg version="1.1" id="Layer_1" xmlns="http://www.w3.org/2000/svg" xmlns:xlink="http://www.w3.org/1999/xlink" x="0px" y="0px"
	 width="100%" viewBox="0 0 2500 2500" enable-background="new 0 0 2500 2500" xml:space="preserve">
<path fill="#FF6C38" opacity="1.000000" stroke="none" 
	d="
M2502.000000,1196.000000 
	C2502.000000,1236.041748 2502.000000,1276.083618 2501.506348,1317.729980 
	C2500.527588,1330.310181 2500.404785,1341.315918 2499.496338,1352.256470 
	C2495.220703,1403.754761 2488.065918,1454.861938 2477.488525,1505.450195 
	C2442.323486,1673.635010 2376.271484,1828.644775 2277.068115,1968.998901 
	C2130.527344,2176.326416 1938.579956,2326.132324 1702.191650,2418.791748 
	C1615.327881,2452.840332 1525.554810,2476.316650 1433.202271,2489.378418 
	C1399.599731,2494.130859 1365.655396,2496.466797 1330.952637,2499.723145 
	C1319.863159,2499.765381 1309.681274,2499.830078 1299.515991,2500.275635 
	C1293.663330,2500.531738 1287.837769,2501.404541 1282.000000,2502.000000 
	C1262.624878,2502.000000 1243.249756,2502.000000 1222.148315,2501.806152 
	C1205.614136,2501.074951 1190.806152,2500.537598 1175.105713,2499.989014 
	C1160.274536,2498.802002 1146.329834,2497.696289 1132.398804,2496.437256 
	C1069.918579,2490.792236 1008.272400,2480.145508 947.582214,2464.357178 
	C651.221008,2387.260742 413.284729,2224.096191 235.280792,1975.381958 
	C95.353172,1779.869385 19.390444,1560.877197 5.460169,1320.603638 
	C4.943892,1311.698853 3.181614,1302.866211 1.999998,1294.000000 
	C2.000000,1273.291504 2.000000,1252.583130 2.001001,1230.137939 
	C3.106302,1214.158691 4.210600,1199.916016 5.421939,1184.769165 
	C8.257846,1126.214722 15.493176,1069.088623 26.558987,1012.490051 
	C58.724960,847.969910 120.924164,695.669739 214.951584,556.825684 
	C353.649048,352.020172 537.182556,200.970520 764.116760,102.809006 
	C848.451599,66.329552 936.036804,40.241508 1026.422485,23.424549 
	C1079.880737,13.478237 1133.774902,7.603196 1188.850464,4.065102 
	C1195.745117,4.063233 1201.748047,3.891581 1208.675781,3.870884 
	C1217.733643,3.347893 1225.866821,2.673946 1234.000000,2.000000 
	C1247.375244,2.000000 1260.750610,2.000000 1275.880371,2.000999 
	C1291.104126,2.643623 1304.573608,3.285247 1318.928223,4.020565 
	C1341.722900,5.944004 1363.660156,7.492009 1385.536743,9.655697 
	C1454.307617,16.457483 1521.916748,29.524809 1588.525513,47.869976 
	C1903.028198,134.489288 2173.820557,344.577576 2336.302490,627.761658 
	C2405.539307,748.431885 2454.057617,876.792664 2480.519043,1013.423950 
	C2490.408936,1064.490479 2497.867676,1115.873657 2500.003906,1168.827148 
	C2500.562500,1178.496704 2501.281250,1187.248291 2502.000000,1196.000000 
M888.999634,1573.999512 
	C805.967407,1657.704102 722.935181,1741.408691 639.626221,1825.392456 
	C640.432068,1826.321533 641.629822,1827.887695 643.012207,1829.269287 
	C684.503479,1870.743652 726.013000,1912.199707 767.519348,1953.659058 
	C768.226501,1954.365234 768.870789,1955.147461 769.641968,1955.774414 
	C775.669983,1960.673828 783.448853,1959.537354 787.871216,1953.144043 
	C790.830688,1948.865234 789.928406,1944.564453 788.766663,1939.808105 
	C781.576050,1910.369629 774.554321,1880.887451 767.807678,1851.344116 
	C764.755432,1837.978394 768.867004,1829.755005 780.799500,1823.217896 
	C783.135803,1821.937866 785.536926,1820.775757 787.913696,1819.570312 
	C891.995972,1766.789551 993.780701,1709.975342 1091.733887,1646.440674 
	C1165.070190,1598.873169 1235.821167,1547.795410 1302.390137,1491.052490 
	C1305.101196,1488.741577 1307.687378,1486.284424 1310.198120,1484.015869 
	C1309.318848,1482.599243 1309.063232,1481.945190 1308.608643,1481.489502 
	C1280.589844,1453.414429 1252.460815,1425.447998 1224.625122,1397.192749 
	C1220.586426,1393.093262 1216.593872,1393.369995 1211.947144,1394.351318 
	C1154.615112,1406.460327 1097.292603,1418.614624 1039.939575,1430.623291 
	C1033.528198,1431.965576 1028.445801,1434.747192 1023.746094,1439.464478 
	C979.282837,1484.094482 934.611572,1528.517456 888.999634,1573.999512 
M1093.562500,1136.566040 
	C1078.069092,1151.954224 1062.575684,1167.342285 1048.138916,1181.680786 
	C1081.333862,1214.879761 1113.540527,1247.090332 1147.465698,1281.019531 
	C1149.210205,1278.612915 1151.177979,1274.970825 1153.981812,1272.163696 
	C1267.979858,1158.031250 1382.053101,1043.973877 1496.117188,929.907227 
	C1532.645996,893.377625 1569.209106,856.882385 1605.688110,820.303101 
	C1620.540283,805.410217 1638.063843,796.017151 1659.073730,793.415222 
	C1661.673462,793.093323 1664.229736,792.420227 1668.301025,791.613770 
	C1647.304810,773.984070 1625.494141,761.588318 1598.713013,759.909729 
	C1575.867432,758.477783 1554.454346,764.367065 1533.635376,772.945984 
	C1504.833740,784.814453 1478.441895,801.020081 1452.857300,818.585449 
	C1403.588135,852.411560 1357.818726,890.653992 1312.973755,930.034241 
	C1237.812988,996.036011 1165.832764,1065.423218 1093.562500,1136.566040 
M1331.404541,1266.396484 
	C1437.604248,1173.203003 1543.804443,1080.010010 1650.003418,986.815552 
	C1672.295288,967.253296 1694.782227,947.907166 1716.813232,928.055237 
	C1737.310913,909.585022 1742.948120,880.587830 1731.807129,854.722351 
	C1720.887695,829.371155 1696.263672,814.309753 1668.662109,816.312866 
	C1648.991821,817.740356 1633.507446,827.455994 1619.917847,841.088806 
	C1470.520874,990.962708 1321.076172,1140.788940 1171.654175,1290.637817 
	C1169.099731,1293.199585 1166.668823,1295.884521 1164.835083,1297.820679 
	C1185.202148,1318.415405 1205.076294,1338.511719 1225.564209,1359.228638 
	C1260.310425,1328.753174 1295.325439,1298.042114 1331.404541,1266.396484 
M1870.661133,607.661438 
	C1901.697876,576.624512 1932.734741,545.587524 1963.785889,514.536316 
	C1909.128174,462.872986 1796.239624,446.421875 1715.792603,519.514648 
	C1638.899292,589.378662 1633.492188,710.223755 1703.957642,787.437805 
	C1737.525513,824.220459 1779.460693,844.742615 1829.313110,848.145142 
	C1863.209839,850.458679 1895.831421,845.783630 1929.082153,827.963623 
	C1924.420654,824.541199 1921.125488,822.704956 1918.551147,820.144043 
	C1879.815430,781.612366 1841.172852,742.986877 1802.515381,704.376404 
	C1800.394897,702.258484 1798.131104,700.240051 1796.289185,697.896118 
	C1792.487183,693.057678 1792.493774,687.109131 1796.300049,682.283386 
	C1798.146606,679.942322 1800.405029,677.920166 1802.523682,675.800415 
	C1824.897461,653.415344 1847.280640,631.039734 1870.661133,607.661438 
M1468.635132,1329.636963 
	C1512.467529,1285.320557 1555.456543,1240.214966 1595.945068,1192.792725 
	C1632.987183,1149.406982 1668.086182,1104.565918 1697.129150,1055.295776 
	C1715.472290,1024.177368 1731.005737,991.825867 1738.989258,956.322449 
	C1740.317261,950.416443 1741.041992,944.374817 1742.136230,937.855347 
	C1574.724609,1084.728271 1408.263428,1230.767334 1242.510254,1376.185181 
	C1271.975952,1405.666748 1300.872803,1434.579224 1330.469482,1464.192017 
	C1376.190063,1420.862183 1422.297974,1376.149292 1468.635132,1329.636963 
M1869.144775,735.855042 
	C1895.906860,762.616943 1922.668823,789.378784 1949.247314,815.957031 
	C2047.501709,751.533936 2058.804932,609.949646 1982.761353,532.044312 
	C1929.736694,584.634827 1876.718384,637.219116 1823.354370,690.146240 
	C1838.945190,705.708435 1853.545166,720.281616 1869.144775,735.855042 
M523.817383,1954.055298 
	C526.770386,1954.528442 529.707520,1955.239258 532.678894,1955.438477 
	C566.906311,1957.733765 601.142639,1959.895996 635.369141,1962.205200 
	C668.928406,1964.469482 702.478088,1966.875977 736.035156,1969.173584 
	C738.808472,1969.363525 741.606018,1969.198608 743.461914,1969.198608 
	C701.879639,1927.691528 660.306091,1886.193237 618.379456,1844.342407 
	C617.109741,1845.512451 614.869751,1847.435913 612.786865,1849.516724 
	C583.088562,1879.184082 553.389648,1908.850830 523.745911,1938.572632 
	C516.840515,1945.496094 516.892151,1946.073120 523.817383,1954.055298 
M1043.535034,1217.465210 
	C1038.161499,1212.231812 1032.787964,1206.998413 1027.485840,1201.834473 
	C1025.798340,1203.154297 1024.943237,1203.690796 1024.247070,1204.386353 
	C985.364929,1243.234009 946.490906,1282.089722 907.644714,1320.973389 
	C906.010559,1322.609131 904.260559,1324.320068 903.236328,1326.337280 
	C900.614136,1331.501099 904.412964,1337.677246 910.161987,1337.715454 
	C912.109558,1337.728394 914.067078,1337.010376 916.011719,1336.588135 
	C973.249329,1324.160400 1030.488403,1311.738647 1087.720215,1299.284790 
	C1097.333374,1297.192993 1106.915283,1294.957764 1118.412842,1292.359009 
	C1092.875244,1266.815918 1068.705444,1242.640869 1043.535034,1217.465210 
M1178.648193,1375.647095 
	C1184.557495,1374.204468 1190.466675,1372.761719 1196.048828,1371.398926 
	C1178.339111,1353.557495 1161.286377,1336.377930 1143.875488,1318.837524 
	C1142.373169,1320.221680 1140.121460,1322.156860 1138.026123,1324.248535 
	C1119.391724,1342.850586 1100.743164,1361.438843 1082.209106,1380.140503 
	C1078.869141,1383.510742 1073.198242,1386.618164 1076.562744,1392.519897 
	C1079.717896,1398.054565 1085.215576,1395.835815 1090.101318,1394.771973 
	C1119.058960,1388.465088 1148.027588,1382.208130 1178.648193,1375.647095 
z"/>
<path fill="#FFFFFF" opacity="1.000000" stroke="none" 
	d="
M1187.958740,3.895319 
	C1133.774902,7.603196 1079.880737,13.478237 1026.422485,23.424549 
	C936.036804,40.241508 848.451599,66.329552 764.116760,102.809006 
	C537.182556,200.970520 353.649048,352.020172 214.951584,556.825684 
	C120.924164,695.669739 58.724960,847.969910 26.558987,1012.490051 
	C15.493176,1069.088623 8.257846,1126.214722 4.866175,1184.813965 
	C3.468915,1185.842163 2.734457,1185.921021 2.000000,1186.000000 
	C2.000000,791.479004 2.000000,396.958038 2.000000,2.000000 
	C396.708344,2.000000 791.416870,2.000000 1187.069458,2.474202 
	C1188.013550,2.948405 1187.958740,3.895319 1187.958740,3.895319 
z"/>
<path fill="#FFFFFF" opacity="1.000000" stroke="none" 
	d="
M1.999998,1294.937256 
	C3.181614,1302.866211 4.943892,1311.698853 5.460169,1320.603638 
	C19.390444,1560.877197 95.353172,1779.869385 235.280792,1975.381958 
	C413.284729,2224.096191 651.221008,2387.260742 947.582214,2464.357178 
	C1008.272400,2480.145508 1069.918579,2490.792236 1132.398804,2496.437256 
	C1146.329834,2497.696289 1160.274536,2498.802002 1175.242676,2500.488770 
	C1176.181519,2501.333252 1176.090698,2501.666748 1176.000000,2502.000000 
	C784.810425,2502.000000 393.620789,2502.000000 2.000000,2502.000000 
	C2.000000,2099.958252 2.000000,1697.916504 1.999998,1294.937256 
z"/>
<path fill="#FFFFFF" opacity="1.000000" stroke="none" 
	d="
M2500.164062,1167.909424 
	C2497.867676,1115.873657 2490.408936,1064.490479 2480.519043,1013.423950 
	C2454.057617,876.792664 2405.539307,748.431885 2336.302490,627.761658 
	C2173.820557,344.577576 1903.028198,134.489288 1588.525513,47.869976 
	C1521.916748,29.524809 1454.307617,16.457483 1385.536743,9.655697 
	C1363.660156,7.492009 1341.722900,5.944004 1318.880493,3.539672 
	C1317.947632,2.965084 1318.000000,2.000000 1318.000000,2.000000 
	C1712.519775,2.000000 2107.039551,2.000000 2502.000000,2.000000 
	C2502.000000,390.041687 2502.000000,778.083496 2501.539062,1167.082520 
	C2501.077881,1168.039795 2500.164062,1167.909424 2500.164062,1167.909424 
z"/>
<path fill="#FFFFFF" opacity="1.000000" stroke="none" 
	d="
M1331.867065,2499.905518 
	C1365.655396,2496.466797 1399.599731,2494.130859 1433.202271,2489.378418 
	C1525.554810,2476.316650 1615.327881,2452.840332 1702.191650,2418.791748 
	C1938.579956,2326.132324 2130.527344,2176.326416 2277.068115,1968.998901 
	C2376.271484,1828.644775 2442.323486,1673.635010 2477.488525,1505.450195 
	C2488.065918,1454.861938 2495.220703,1403.754761 2499.496338,1352.256470 
	C2500.404785,1341.315918 2500.527588,1330.310181 2501.506348,1318.667236 
	C2502.000000,1712.520020 2502.000000,2107.040039 2502.000000,2502.000000 
	C2112.625000,2502.000000 1723.249756,2502.000000 1332.695557,2501.489502 
	C1331.633301,2500.621338 1331.750244,2500.263428 1331.867065,2499.905518 
z"/>
<path fill="#FEC9B5" opacity="1.000000" stroke="none" 
	d="
M2.000000,1186.937134 
	C2.734457,1185.921021 3.468915,1185.842163 4.759135,1185.718262 
	C4.210600,1199.916016 3.106302,1214.158691 2.001001,1229.200684 
	C2.000000,1215.958130 2.000000,1201.916138 2.000000,1186.937134 
z"/>
<path fill="#FE9C79" opacity="1.000000" stroke="none" 
	d="
M1330.952637,2499.723145 
	C1331.750244,2500.263428 1331.633301,2500.621338 1331.758301,2501.489502 
	C1315.958130,2502.000000 1299.916382,2502.000000 1282.937256,2502.000000 
	C1287.837769,2501.404541 1293.663330,2500.531738 1299.515991,2500.275635 
	C1309.681274,2499.830078 1319.863159,2499.765381 1330.952637,2499.723145 
z"/>
<path fill="#FEAC8F" opacity="1.000000" stroke="none" 
	d="
M1176.937256,2502.000000 
	C1176.090698,2501.666748 1176.181519,2501.333252 1176.135254,2500.500000 
	C1190.806152,2500.537598 1205.614136,2501.074951 1221.210938,2501.806152 
	C1207.291504,2502.000000 1192.583008,2502.000000 1176.937256,2502.000000 
z"/>
<path fill="#FEC9B5" opacity="1.000000" stroke="none" 
	d="
M1317.062988,2.000000 
	C1318.000000,2.000000 1317.947632,2.965084 1317.995361,3.445978 
	C1304.573608,3.285247 1291.104126,2.643623 1276.817383,2.000999 
	C1289.375244,2.000000 1302.750610,2.000000 1317.062988,2.000000 
z"/>
<path fill="#FEC9B5" opacity="1.000000" stroke="none" 
	d="
M2500.003906,1168.827148 
	C2500.164062,1167.909424 2501.077881,1168.039795 2501.539062,1168.019897 
	C2502.000000,1176.713745 2502.000000,1185.427612 2502.000000,1195.070679 
	C2501.281250,1187.248291 2500.562500,1178.496704 2500.003906,1168.827148 
z"/>
<path fill="#FE9C79" opacity="1.000000" stroke="none" 
	d="
M1233.073608,2.000000 
	C1225.866821,2.673946 1217.733643,3.347893 1208.754883,3.443381 
	C1207.909424,2.864923 1208.000000,2.000000 1208.000000,2.000000 
	C1216.049072,2.000000 1224.098145,2.000000 1233.073608,2.000000 
z"/>
<path fill="#FED9CA" opacity="1.000000" stroke="none" 
	d="
M1207.091797,2.000000 
	C1208.000000,2.000000 1207.909424,2.864923 1207.830200,3.292426 
	C1201.748047,3.891581 1195.745117,4.063233 1188.850464,4.065102 
	C1187.958740,3.895319 1188.013550,2.948405 1188.006836,2.474202 
	C1194.061157,2.000000 1200.122437,2.000000 1207.091797,2.000000 
z"/>
<path fill="#FFFEFE" opacity="1.000000" stroke="none" 
	d="
M889.499878,1573.499756 
	C934.611572,1528.517456 979.282837,1484.094482 1023.746094,1439.464478 
	C1028.445801,1434.747192 1033.528198,1431.965576 1039.939575,1430.623291 
	C1097.292603,1418.614624 1154.615112,1406.460327 1211.947144,1394.351318 
	C1216.593872,1393.369995 1220.586426,1393.093262 1224.625122,1397.192749 
	C1252.460815,1425.447998 1280.589844,1453.414429 1308.608643,1481.489502 
	C1309.063232,1481.945190 1309.318848,1482.599243 1310.198120,1484.015869 
	C1307.687378,1486.284424 1305.101196,1488.741577 1302.390137,1491.052490 
	C1235.821167,1547.795410 1165.070190,1598.873169 1091.733887,1646.440674 
	C993.780701,1709.975342 891.995972,1766.789551 787.913696,1819.570312 
	C785.536926,1820.775757 783.135803,1821.937866 780.799500,1823.217896 
	C768.867004,1829.755005 764.755432,1837.978394 767.807678,1851.344116 
	C774.554321,1880.887451 781.576050,1910.369629 788.766663,1939.808105 
	C789.928406,1944.564453 790.830688,1948.865234 787.871216,1953.144043 
	C783.448853,1959.537354 775.669983,1960.673828 769.641968,1955.774414 
	C768.870789,1955.147461 768.226501,1954.365234 767.519348,1953.659058 
	C726.013000,1912.199707 684.503479,1870.743652 643.012207,1829.269287 
	C641.629822,1827.887695 640.432068,1826.321533 639.626221,1825.392456 
	C722.935181,1741.408691 805.967407,1657.704102 889.499878,1573.499756 
z"/>
<path fill="#FFFEFD" opacity="1.000000" stroke="none" 
	d="
M1094.066650,1136.068359 
	C1165.832764,1065.423218 1237.812988,996.036011 1312.973755,930.034241 
	C1357.818726,890.653992 1403.588135,852.411560 1452.857300,818.585449 
	C1478.441895,801.020081 1504.833740,784.814453 1533.635376,772.945984 
	C1554.454346,764.367065 1575.867432,758.477783 1598.713013,759.909729 
	C1625.494141,761.588318 1647.304810,773.984070 1668.301025,791.613770 
	C1664.229736,792.420227 1661.673462,793.093323 1659.073730,793.415222 
	C1638.063843,796.017151 1620.540283,805.410217 1605.688110,820.303101 
	C1569.209106,856.882385 1532.645996,893.377625 1496.117188,929.907227 
	C1382.053101,1043.973877 1267.979858,1158.031250 1153.981812,1272.163696 
	C1151.177979,1274.970825 1149.210205,1278.612915 1147.465698,1281.019531 
	C1113.540527,1247.090332 1081.333862,1214.879761 1048.138916,1181.680786 
	C1062.575684,1167.342285 1078.069092,1151.954224 1094.066650,1136.068359 
z"/>
<path fill="#FFFEFD" opacity="1.000000" stroke="none" 
	d="
M1330.872437,1266.863770 
	C1295.325439,1298.042114 1260.310425,1328.753174 1225.564209,1359.228638 
	C1205.076294,1338.511719 1185.202148,1318.415405 1164.835083,1297.820679 
	C1166.668823,1295.884521 1169.099731,1293.199585 1171.654175,1290.637817 
	C1321.076172,1140.788940 1470.520874,990.962708 1619.917847,841.088806 
	C1633.507446,827.455994 1648.991821,817.740356 1668.662109,816.312866 
	C1696.263672,814.309753 1720.887695,829.371155 1731.807129,854.722351 
	C1742.948120,880.587830 1737.310913,909.585022 1716.813232,928.055237 
	C1694.782227,947.907166 1672.295288,967.253296 1650.003418,986.815552 
	C1543.804443,1080.010010 1437.604248,1173.203003 1330.872437,1266.863770 
z"/>
<path fill="#FFFEFD" opacity="1.000000" stroke="none" 
	d="
M1870.161133,608.161499 
	C1847.280640,631.039734 1824.897461,653.415344 1802.523682,675.800415 
	C1800.405029,677.920166 1798.146606,679.942322 1796.300049,682.283386 
	C1792.493774,687.109131 1792.487183,693.057678 1796.289185,697.896118 
	C1798.131104,700.240051 1800.394897,702.258484 1802.515381,704.376404 
	C1841.172852,742.986877 1879.815430,781.612366 1918.551147,820.144043 
	C1921.125488,822.704956 1924.420654,824.541199 1929.082153,827.963623 
	C1895.831421,845.783630 1863.209839,850.458679 1829.313110,848.145142 
	C1779.460693,844.742615 1737.525513,824.220459 1703.957642,787.437805 
	C1633.492188,710.223755 1638.899292,589.378662 1715.792603,519.514648 
	C1796.239624,446.421875 1909.128174,462.872986 1963.785889,514.536316 
	C1932.734741,545.587524 1901.697876,576.624512 1870.161133,608.161499 
z"/>
<path fill="#FFFEFD" opacity="1.000000" stroke="none" 
	d="
M1468.136963,1330.138794 
	C1422.297974,1376.149292 1376.190063,1420.862183 1330.469482,1464.192017 
	C1300.872803,1434.579224 1271.975952,1405.666748 1242.510254,1376.185181 
	C1408.263428,1230.767334 1574.724609,1084.728271 1742.136230,937.855347 
	C1741.041992,944.374817 1740.317261,950.416443 1738.989258,956.322449 
	C1731.005737,991.825867 1715.472290,1024.177368 1697.129150,1055.295776 
	C1668.086182,1104.565918 1632.987183,1149.406982 1595.945068,1192.792725 
	C1555.456543,1240.214966 1512.467529,1285.320557 1468.136963,1330.138794 
z"/>
<path fill="#FFFDFD" opacity="1.000000" stroke="none" 
	d="
M1868.645020,735.354858 
	C1853.545166,720.281616 1838.945190,705.708435 1823.354370,690.146240 
	C1876.718384,637.219116 1929.736694,584.634827 1982.761353,532.044312 
	C2058.804932,609.949646 2047.501709,751.533936 1949.247314,815.957031 
	C1922.668823,789.378784 1895.906860,762.616943 1868.645020,735.354858 
M1995.354004,659.970398 
	C1992.714355,651.434814 1990.754028,642.605103 1987.224854,634.454712 
	C1984.290283,627.677551 1976.024780,625.382690 1969.239258,627.893677 
	C1962.696289,630.314880 1958.921875,637.543762 1960.546631,645.012024 
	C1961.107422,647.589783 1962.218628,650.055847 1963.163208,652.540771 
	C1968.617920,666.891052 1966.973145,680.607178 1959.504028,693.800415 
	C1958.194214,696.113953 1956.541138,698.258728 1955.446045,700.663391 
	C1952.434570,707.276550 1954.418213,714.853333 1959.888672,718.449158 
	C1965.041748,721.836304 1972.362549,720.944641 1977.219482,716.097595 
	C1979.086060,714.234741 1980.671509,712.043945 1982.147339,709.843201 
	C1991.907959,695.289124 1996.615845,679.304321 1995.354004,659.970398 
z"/>
<path fill="#FFFEFD" opacity="1.000000" stroke="none" 
	d="
M523.114868,1953.694092 
	C516.892151,1946.073120 516.840515,1945.496094 523.745911,1938.572632 
	C553.389648,1908.850830 583.088562,1879.184082 612.786865,1849.516724 
	C614.869751,1847.435913 617.109741,1845.512451 618.379456,1844.342407 
	C660.306091,1886.193237 701.879639,1927.691528 743.461914,1969.198608 
	C741.606018,1969.198608 738.808472,1969.363525 736.035156,1969.173584 
	C702.478088,1966.875977 668.928406,1964.469482 635.369141,1962.205200 
	C601.142639,1959.895996 566.906311,1957.733765 532.678894,1955.438477 
	C529.707520,1955.239258 526.770386,1954.528442 523.114868,1953.694092 
z"/>
<path fill="#FFFDFC" opacity="1.000000" stroke="none" 
	d="
M1044.035278,1217.965454 
	C1068.705444,1242.640869 1092.875244,1266.815918 1118.412842,1292.359009 
	C1106.915283,1294.957764 1097.333374,1297.192993 1087.720215,1299.284790 
	C1030.488403,1311.738647 973.249329,1324.160400 916.011719,1336.588135 
	C914.067078,1337.010376 912.109558,1337.728394 910.161987,1337.715454 
	C904.412964,1337.677246 900.614136,1331.501099 903.236328,1326.337280 
	C904.260559,1324.320068 906.010559,1322.609131 907.644714,1320.973389 
	C946.490906,1282.089722 985.364929,1243.234009 1024.247070,1204.386353 
	C1024.943237,1203.690796 1025.798340,1203.154297 1027.485840,1201.834473 
	C1032.787964,1206.998413 1038.161499,1212.231812 1044.035278,1217.965454 
z"/>
<path fill="#FEFDFC" opacity="1.000000" stroke="none" 
	d="
M1177.820312,1375.790771 
	C1148.027588,1382.208130 1119.058960,1388.465088 1090.101318,1394.771973 
	C1085.215576,1395.835815 1079.717896,1398.054565 1076.562744,1392.519897 
	C1073.198242,1386.618164 1078.869141,1383.510742 1082.209106,1380.140503 
	C1100.743164,1361.438843 1119.391724,1342.850586 1138.026123,1324.248535 
	C1140.121460,1322.156860 1142.373169,1320.221680 1143.875488,1318.837524 
	C1161.286377,1336.377930 1178.339111,1353.557495 1196.048828,1371.398926 
	C1190.466675,1372.761719 1184.557495,1374.204468 1177.820312,1375.790771 
z"/>
<path fill="#FE703D" opacity="1.000000" stroke="none" 
	d="
M1995.456543,660.847290 
	C1996.615845,679.304321 1991.907959,695.289124 1982.147339,709.843201 
	C1980.671509,712.043945 1979.086060,714.234741 1977.219482,716.097595 
	C1972.362549,720.944641 1965.041748,721.836304 1959.888672,718.449158 
	C1954.418213,714.853333 1952.434570,707.276550 1955.446045,700.663391 
	C1956.541138,698.258728 1958.194214,696.113953 1959.504028,693.800415 
	C1966.973145,680.607178 1968.617920,666.891052 1963.163208,652.540771 
	C1962.218628,650.055847 1961.107422,647.589783 1960.546631,645.012024 
	C1958.921875,637.543762 1962.696289,630.314880 1969.239258,627.893677 
	C1976.024780,625.382690 1984.290283,627.677551 1987.224854,634.454712 
	C1990.754028,642.605103 1992.714355,651.434814 1995.456543,660.847290 
z"/>
</svg>