<?xml version="1.0" encoding="UTF-8"?>
<svg version="1.1" xmlns="http://www.w3.org/2000/svg" width="1536" height="1536">
<path d="M0 0 C506.88 0 1013.76 0 1536 0 C1536 506.88 1536 1013.76 1536 1536 C1029.12 1536 522.24 1536 0 1536 C0 1029.12 0 522.24 0 0 Z " fill="#0090FD" transform="translate(0,0)"/>
<path d="M0 0 C0.6598634 -0.00367669 1.31972679 -0.00735338 1.99958605 -0.01114148 C4.20378783 -0.0221261 6.40794237 -0.02601342 8.61216736 -0.02983093 C10.19619901 -0.03610014 11.7802292 -0.04274734 13.36425781 -0.04974365 C18.56529219 -0.07075363 23.76632671 -0.0811516 28.96739197 -0.09111023 C30.76516166 -0.09516064 32.56293121 -0.09927765 34.36070061 -0.10346031 C42.81933562 -0.12251493 51.27796195 -0.1367385 59.73661429 -0.14507228 C69.45614466 -0.15480903 79.17544513 -0.18103359 88.89489466 -0.22157317 C96.4324025 -0.25191626 103.9698452 -0.26655873 111.50741285 -0.26985329 C115.99615566 -0.27218553 120.48465304 -0.28090247 124.97332954 -0.30631447 C168.95133074 -0.54247787 168.95133074 -0.54247787 187.24473572 7.89717102 C188.02284607 8.24223694 188.80095642 8.58730286 189.60264587 8.94282532 C216.99440882 21.40005387 235.81039008 42.53040953 247.30723572 70.14717102 C248.45453444 73.4507404 249.46853563 76.75243256 250.30723572 80.14717102 C252.02197223 76.90476016 253.29232943 73.58771612 254.55723572 70.14717102 C265.50435491 41.61444637 285.68976553 20.78747468 313.30723572 8.14717102 C328.74204658 1.43638369 344.4898637 -0.3137477 361.11729431 -0.24101257 C362.71770075 -0.2450923 364.31810437 -0.25044193 365.91850281 -0.25694275 C370.20742635 -0.27044928 374.49612992 -0.26538961 378.78505659 -0.25580549 C383.30153906 -0.24812922 387.81800459 -0.25527561 392.33448792 -0.25996399 C399.90763177 -0.26539525 407.48068734 -0.25829596 415.05381775 -0.24394226 C423.78418945 -0.22758534 432.51435124 -0.2329369 441.24471796 -0.24942148 C448.77724791 -0.26306938 456.309715 -0.26494095 463.84225333 -0.25710547 C468.32543161 -0.25245162 472.80851141 -0.25174133 477.2916832 -0.26171494 C481.50262211 -0.270432 485.71329188 -0.26427699 489.92420197 -0.24703217 C491.46119619 -0.24309401 492.9982134 -0.24415508 494.53519821 -0.25082016 C511.42231721 -0.31725624 523.59356459 3.14092172 536.01817322 14.83467102 C544.57643751 23.48056259 550.4197342 34.58176708 550.43866348 46.96399117 C550.44250463 47.91116292 550.44634577 48.85833468 550.45030332 49.83420861 C550.44943683 50.86658807 550.44857035 51.89896754 550.44767761 52.96263123 C550.4521343 54.61736161 550.4521343 54.61736161 550.45668101 56.30552089 C550.46536641 60.00941843 550.46687614 63.71328363 550.46836853 67.41719055 C550.47299684 70.0699987 550.47800102 72.72280392 550.4834137 75.37561035 C550.49698395 82.58863105 550.50301987 89.80164618 550.50742435 97.01467752 C550.51018934 101.52130532 550.51442719 106.02793099 550.51892853 110.53455734 C550.53112015 123.01968056 550.54141924 135.50480207 550.54480362 147.98993111 C550.54502319 148.78871097 550.54524275 149.58749083 550.54546897 150.41047614 C550.54568725 151.21113649 550.54590553 152.01179685 550.54613042 152.83671963 C550.54657388 154.45908364 550.54702044 156.08144764 550.54747009 157.70381165 C550.54769152 158.50855533 550.54791295 159.31329901 550.54814109 160.14242886 C550.55208688 173.17445623 550.56953469 186.20642762 550.59282961 199.23843338 C550.61657013 212.62816394 550.62900672 226.01786645 550.63017154 239.4076184 C550.63108685 246.9214005 550.63680278 254.43510966 550.65499115 261.94887161 C550.67042871 268.3486863 550.67549117 274.7484055 550.66725305 281.14823528 C550.66335923 284.41039436 550.66586202 287.67232219 550.67831039 290.93446541 C550.69104315 294.47974385 550.68514529 298.02453354 550.67472839 301.56980896 C550.6827848 302.58880409 550.6908412 303.60779923 550.69914174 304.657673 C550.59654277 319.6480371 545.27619081 331.86695406 534.97911072 342.66670227 C523.2290552 353.57501405 508.98651687 356.28438939 493.50401306 356.320755 C491.72673828 356.33078552 491.72673828 356.33078552 489.91355896 356.34101868 C486.66834045 356.3587234 483.42313256 356.37229378 480.1778903 356.38463092 C476.75032612 356.399175 473.32280737 356.42066858 469.89527893 356.44186401 C458.2378871 356.51267443 446.58044952 356.57217939 434.92295837 356.62397766 C428.48053826 356.65267824 422.03818897 356.68827805 415.59584391 356.73063141 C412.20353315 356.75260323 408.81134599 356.77014097 405.41897202 356.78108025 C391.67992778 356.82595641 378.00014267 357.08200753 364.29014587 358.02632141 C362.63430512 358.13792555 362.63430512 358.13792555 360.94501305 358.25178432 C329.89500285 360.61674384 297.65725343 369.2756529 275.30723572 392.14717102 C266.27489955 402.91934243 260.20144715 416.16206821 255.82872009 429.42060852 C255.04551697 431.63935852 255.04551697 431.63935852 253.30723572 435.14717102 C250.60020447 436.15498352 250.60020447 436.15498352 248.30723572 436.14717102 C247.91536072 435.09529602 247.52348572 434.04342102 247.11973572 432.95967102 C246.70401306 431.86138977 246.70401306 431.86138977 246.27989197 430.74092102 C245.58648681 428.8918406 244.90843993 427.03697029 244.24082947 425.17842102 C239.89050381 413.34783243 234.42466582 402.81533659 226.30723572 393.14717102 C225.88442322 392.56838196 225.46161072 391.9895929 225.02598572 391.39326477 C207.84725312 368.81999115 173.51923623 362.7551582 147.30723572 359.14717102 C130.48139814 357.1977958 113.6475336 356.85467538 96.72664642 356.84221077 C92.64637813 356.83847285 88.56633876 356.82189676 84.48612976 356.80145264 C74.37462251 356.75300002 64.26307456 356.72135887 54.151474 356.70014954 C46.23816298 356.68354765 38.32499533 356.66060663 30.41178012 356.61712879 C27.0252328 356.59909529 23.63888067 356.58671397 20.25228119 356.58842659 C16.48558776 356.5882333 12.71936354 356.56988329 8.95274353 356.54780579 C7.31447601 356.55467155 7.31447601 356.55467155 5.64311218 356.56167603 C-10.02820957 356.41656558 -23.02279684 352.32190138 -34.43885803 341.45967102 C-42.52639773 333.16188333 -48.80626734 322.27315802 -48.82419205 310.40375328 C-48.82803319 309.44750569 -48.83187434 308.49125809 -48.83583188 307.5060333 C-48.8349654 306.45838603 -48.83409892 305.41073876 -48.83320618 304.3313446 C-48.8361773 303.21608922 -48.83914842 302.10083383 -48.84220958 300.95178282 C-48.85090658 297.20098672 -48.85240569 293.45022251 -48.85389709 289.69941711 C-48.8585246 287.01557769 -48.86352855 284.33174117 -48.86894226 281.64790344 C-48.88252155 274.34605051 -48.88854992 267.04420307 -48.89295292 259.74233961 C-48.89571652 255.18128436 -48.89995414 250.62023122 -48.90445709 246.0591774 C-48.91665017 233.42654491 -48.9269488 220.79391411 -48.93033218 208.16127586 C-48.93055175 207.35280649 -48.93077132 206.54433711 -48.93099754 205.71136866 C-48.93121581 204.9009799 -48.93143409 204.09059115 -48.93165898 203.25564516 C-48.93210245 201.61353008 -48.93254901 199.971415 -48.93299866 198.32929993 C-48.93322009 197.51475659 -48.93344152 196.70021325 -48.93366966 195.86098678 C-48.93761557 182.66979068 -48.95506309 169.4786499 -48.97835818 156.28747515 C-49.00209166 142.73844935 -49.01453497 129.18945127 -49.0157001 115.64040434 C-49.01661584 108.03553672 -49.02234246 100.43074114 -49.04051971 92.8258934 C-49.0559478 86.34843887 -49.06102531 79.87107863 -49.05278161 73.39360921 C-49.04888438 70.09107659 -49.05140311 66.78877267 -49.06383896 63.48625565 C-49.0765532 59.89897437 -49.07068385 56.3121774 -49.06025696 52.72489929 C-49.06831336 51.69063635 -49.07636977 50.65637341 -49.08467031 49.59076917 C-48.99719715 36.68991104 -44.26407069 24.32542511 -35.43495178 14.76435852 C-25.57400659 5.61092509 -13.47848764 0.04886301 0 0 Z " fill="#FEFEFE" transform="translate(516.6927642822266,548.8528289794922)"/>
<path d="M0 0 C1.04175243 -0.00467997 1.04175243 -0.00467997 2.10455036 -0.00945449 C4.44307635 -0.01746291 6.7813449 -0.01109992 9.11987305 -0.00482178 C10.79178012 -0.00753038 12.463686 -0.01109058 14.1355896 -0.01544189 C18.68507673 -0.02458372 23.23447347 -0.02101428 27.78396225 -0.01468372 C32.53696696 -0.00963298 37.28996375 -0.01431259 42.04296875 -0.01745605 C50.02597448 -0.02109841 58.00894324 -0.01628955 65.99194336 -0.0067749 C75.23166904 0.00411016 84.47130647 0.00058478 93.71103001 -0.01042771 C101.63291208 -0.01949293 109.55476752 -0.02078963 117.4766531 -0.01555037 C122.21293523 -0.01242645 126.94917583 -0.01203288 131.68545532 -0.01862335 C136.13741834 -0.02438508 140.58926717 -0.02042154 145.0412178 -0.00883484 C146.67873571 -0.00618195 148.31626316 -0.00696401 149.95377731 -0.01136017 C152.18204412 -0.01679242 154.40994064 -0.01001017 156.63818359 0 C157.88738083 0.00075405 159.13657806 0.0015081 160.42362976 0.002285 C163.3190918 0.25396729 163.3190918 0.25396729 165.3190918 2.25396729 C165.56201172 5.03546143 165.56201172 5.03546143 165.54956055 8.53912354 C165.54762695 9.79144775 165.54569336 11.04377197 165.54370117 12.33404541 C165.53145508 13.64824463 165.51920898 14.96244385 165.5065918 16.31646729 C165.505625 18.29356689 165.505625 18.29356689 165.50463867 20.31060791 C165.45918302 30.11387606 165.45918302 30.11387606 164.3190918 31.25396729 C162.12143893 31.35536279 159.92046301 31.38474816 157.72047424 31.38768005 C157.0227435 31.38994561 156.32501275 31.39221117 155.60613865 31.39454538 C153.25075564 31.40091312 150.89542976 31.40005425 148.54003906 31.39923096 C146.85842819 31.40222072 145.17681801 31.40562282 143.49520874 31.40940857 C138.91469759 31.41827132 134.33420509 31.42058763 129.75368619 31.42122436 C125.93635831 31.42217154 122.11903483 31.42584763 118.30170864 31.42939645 C109.29928138 31.43754963 100.29686412 31.4399799 91.29443359 31.43927002 C81.99281865 31.43866897 72.69126165 31.44922428 63.38966137 31.46501368 C55.41684938 31.47806764 47.44405639 31.48345482 39.47123379 31.48281461 C34.70363166 31.48255899 29.93608099 31.48544508 25.16848946 31.49599266 C20.68618065 31.5056377 16.20397288 31.50577769 11.72166061 31.49847603 C10.07285223 31.49742569 8.42403768 31.49981946 6.77523994 31.50583649 C4.53160349 31.51349644 2.28832122 31.50895194 0.04469299 31.50120544 C-1.8421126 31.5020226 -1.8421126 31.5020226 -3.76703548 31.50285625 C-6.6809082 31.25396729 -6.6809082 31.25396729 -8.6809082 29.25396729 C-8.93969727 26.58013916 -8.93969727 26.58013916 -8.9465332 23.22271729 C-8.94911133 22.02002197 -8.95168945 20.81732666 -8.9543457 19.57818604 C-8.94661133 18.31619385 -8.93887695 17.05420166 -8.9309082 15.75396729 C-8.93864258 14.4919751 -8.94637695 13.22998291 -8.9543457 11.92974854 C-8.95176758 10.72705322 -8.94918945 9.52435791 -8.9465332 8.28521729 C-8.94427734 7.17726807 -8.94202148 6.06931885 -8.93969727 4.92779541 C-8.3920053 -0.73099932 -4.78991488 0.00289133 0 0 Z " fill="#0291FD" transform="translate(823.680908203125,733.7460327148438)"/>
<path d="M0 0 C1.24919724 0.00054477 2.49839447 0.00108953 3.78544617 0.00165081 C4.8271986 -0.00197081 4.8271986 -0.00197081 5.88999653 -0.0056656 C8.22853167 -0.01132335 10.56679614 -0.00262401 12.90531921 0.00596905 C14.57722549 0.00489668 16.2491314 0.00295867 17.92103577 0.00021648 C22.47052981 -0.00464222 27.01992618 0.00303658 31.56940842 0.01316953 C36.32240951 0.0219335 41.07540739 0.0201929 45.82841492 0.01980877 C53.81142314 0.02074617 61.79439343 0.02944037 69.77738953 0.04307842 C79.0170948 0.05880475 88.25675849 0.06407657 97.49647617 0.06334287 C106.37156313 0.06273321 115.24663649 0.06783296 124.12171936 0.07613468 C127.90478115 0.07967222 131.68783813 0.0814986 135.47090149 0.08202839 C139.92283788 0.08303051 144.37473916 0.08911643 148.82666397 0.09919453 C150.46418162 0.10212355 152.10170331 0.10334409 153.73922348 0.10276699 C155.96739665 0.10227876 158.19547039 0.10790765 160.42362976 0.1151762 C161.672827 0.11685205 162.92202423 0.11852789 164.20907593 0.12025452 C167.10453796 0.24888897 167.10453796 0.24888897 169.10453796 1.24888897 C169.15393459 5.19985875 169.19025552 9.15070926 169.21440125 13.10191631 C169.22941904 15.10800257 169.25482777 17.11400221 169.28031921 19.11998272 C169.28676453 20.37681866 169.29320984 21.63365459 169.29985046 22.92857647 C169.3103241 24.09114971 169.32079773 25.25372295 169.33158875 26.45152569 C169.10453796 29.24888897 169.10453796 29.24888897 167.10453796 31.24888897 C164.20907593 31.50057125 164.20907593 31.50057125 160.42362976 31.50285625 C159.38187733 31.50753623 159.38187733 31.50753623 158.3190794 31.51231074 C155.98055341 31.52031917 153.64228486 31.51395618 151.30375671 31.50767803 C149.63184964 31.51038664 147.95994376 31.51394683 146.28804016 31.51829815 C141.73855303 31.52743997 137.18915629 31.52387054 132.63966751 31.51753998 C127.8866628 31.51248924 123.13366601 31.51716884 118.38066101 31.52031231 C110.39765528 31.52395467 102.41468652 31.5191458 94.4316864 31.50963116 C85.19196072 31.49874609 75.95232329 31.50227148 66.71259975 31.51328397 C58.79071769 31.52234918 50.86886224 31.52364588 42.94697666 31.51840663 C38.21069453 31.5152827 33.47445393 31.51488913 28.73817444 31.52147961 C24.28621142 31.52724133 19.83436259 31.5232778 15.38241196 31.51169109 C13.74489405 31.5090382 12.1073666 31.50982026 10.46985245 31.51421642 C8.24158564 31.51964867 6.01368912 31.51286642 3.78544617 31.50285625 C2.53624893 31.5021022 1.2870517 31.50134815 0 31.50057125 C-2.89546204 31.24888897 -2.89546204 31.24888897 -4.89546204 29.24888897 C-5.1542511 26.57506084 -5.1542511 26.57506084 -5.16108704 23.21763897 C-5.16366516 22.01494366 -5.16624329 20.81224834 -5.16889954 19.57310772 C-5.16116516 18.31111553 -5.15343079 17.04912334 -5.14546204 15.74888897 C-5.15319641 14.48689678 -5.16093079 13.22490459 -5.16889954 11.92467022 C-5.16632141 10.72197491 -5.16374329 9.51927959 -5.16108704 8.28013897 C-5.15883118 7.17218975 -5.15657532 6.06424053 -5.1542511 4.92271709 C-4.78010175 1.05697774 -3.83872179 0.32996997 0 0 Z " fill="#0190FD" transform="translate(819.8954620361328,670.7511110305786)"/>
<path d="M0 0 C1.2578704 0.00054477 2.5157408 0.00108953 3.81172848 0.00165081 C4.51101921 -0.00076361 5.21030995 -0.00317802 5.93079132 -0.0056656 C8.28547932 -0.01132344 10.63989853 -0.00262397 12.99457455 0.00596905 C14.67795542 0.00489669 16.36133594 0.0029587 18.04471493 0.00021648 C22.62513233 -0.00464205 27.20545272 0.00303607 31.78585839 0.01316953 C36.5700239 0.02193236 41.35418622 0.02019294 46.13835812 0.01980877 C54.17264086 0.02074613 62.20688589 0.0294403 70.24115658 0.04307842 C79.54336577 0.05881004 88.84553367 0.06407639 98.14775521 0.06334287 C107.08051063 0.0627335 116.01325254 0.06783025 124.94600391 0.07613468 C128.75501199 0.0796744 132.56401529 0.08149891 136.37302494 0.08202839 C140.8536853 0.08302954 145.33431069 0.08910739 149.81495953 0.09919453 C151.46418513 0.10212671 153.11341475 0.10334345 154.76264286 0.10276699 C157.00430289 0.10227977 159.24586348 0.1078975 161.48750973 0.1151762 C162.7450031 0.11685205 164.00249647 0.11852789 165.2980957 0.12025452 C168.08612728 0.24888897 168.08612728 0.24888897 169.08612728 1.24888897 C169.34028278 5.88904222 169.27135526 10.54010203 169.27362728 15.18638897 C169.28587337 16.50058819 169.29811947 17.81478741 169.31073666 19.16881084 C169.31267025 20.42113506 169.31460384 21.67345928 169.31659603 22.96373272 C169.32070492 24.11994122 169.3248138 25.27614971 169.3290472 26.46739483 C169.08612728 29.24888897 169.08612728 29.24888897 167.08612728 31.24888897 C164.22748661 31.50057125 164.22748661 31.50057125 160.49460506 31.50285625 C159.80968168 31.50597624 159.1247583 31.50909622 158.41907966 31.51231074 C156.1128595 31.5203189 153.80690041 31.51395623 151.50067806 31.50767803 C149.85172019 31.5103867 148.20276352 31.51394693 146.55380917 31.51829815 C142.06616884 31.52744066 137.57862014 31.52386988 133.09097815 31.51753998 C128.40030222 31.51248789 123.70963431 31.51716938 119.01895809 31.52031231 C111.13850142 31.52395499 103.25808218 31.51914571 95.37763119 31.50963116 C86.26291306 31.49875357 77.14828445 31.50226591 68.0335685 31.51328397 C60.21526355 31.52235726 52.39698557 31.52364169 44.57867706 31.51840663 C39.90604712 31.51528619 35.23345927 31.51487947 30.56083202 31.52147961 C26.16631662 31.52725277 21.77191667 31.52325668 17.37741375 31.51169109 C15.76331175 31.50904403 14.14920005 31.50981039 12.53510189 31.51421642 C10.33380854 31.51967171 8.13288641 31.51283807 5.93161678 31.50285625 C4.69901182 31.5021022 3.46640686 31.50134815 2.19645023 31.50057125 C-0.75863709 31.26145038 -2.43007426 30.80367859 -4.91387272 29.24888897 C-4.97170312 24.79060971 -5.00741127 20.33242617 -5.03887272 15.87388897 C-5.05563053 14.60287334 -5.07238834 13.33185772 -5.08965397 12.02232647 C-5.09609928 10.81060772 -5.10254459 9.59888897 -5.10918522 8.35045147 C-5.12489567 6.6694334 -5.12489567 6.6694334 -5.1409235 4.95445538 C-4.81322025 1.04950114 -3.87035143 0.33058677 0 0 Z " fill="#0391FD" transform="translate(819.913872718811,797.7511110305786)"/>
<path d="M0 0 C1.89013651 0.00138269 1.89013651 0.00138269 3.8184576 0.00279331 C4.86717042 0.00151167 4.86717042 0.00151167 5.93706936 0.00020415 C8.29712931 -0.00145268 10.65711933 0.00407399 13.01717281 0.00952244 C14.70202794 0.00980429 16.38688319 0.00964661 18.07173824 0.00907993 C22.66038632 0.00879189 27.2490085 0.01468972 31.83765054 0.02165389 C36.62762812 0.0278863 41.41760623 0.02849114 46.20758724 0.0296793 C55.28467211 0.03279295 64.36174501 0.04100679 73.43882459 0.05102879 C83.76996761 0.06218888 94.10111119 0.06770011 104.43225873 0.07272422 C125.69030645 0.08318938 146.94834337 0.10078947 168.2063818 0.12304783 C169.79631054 3.88656472 170.46243385 6.68934883 170.4720068 10.79101658 C170.47458492 11.84869236 170.47716305 12.90636814 170.4798193 13.9960947 C170.47208492 15.08986423 170.46435055 16.18363377 170.4563818 17.31054783 C170.46411617 18.41591892 170.47185055 19.52129002 170.4798193 20.6601572 C170.47724117 21.7139658 170.47466305 22.76777439 170.4720068 23.85351658 C170.46975094 24.81668797 170.46749508 25.77985935 170.46517086 26.77221775 C170.2063818 29.12304783 170.2063818 29.12304783 168.2063818 31.12304783 C165.31091976 31.3719368 165.31091976 31.3719368 161.52547359 31.37028599 C160.83097198 31.3727004 160.13647036 31.37511482 159.42092323 31.3776024 C157.08238809 31.38326014 154.74412362 31.3745608 152.40560055 31.36596775 C150.73369427 31.36704012 149.06178836 31.36897813 147.389884 31.37172031 C142.84038995 31.37657902 138.29099358 31.36890021 133.74151134 31.35876727 C128.98851025 31.3500033 124.23551237 31.35174389 119.48250484 31.35212803 C111.49949662 31.35119062 103.51652633 31.34249643 95.53353024 31.32885838 C86.29382497 31.31313205 77.05416128 31.30786023 67.81444359 31.30859393 C58.93935663 31.30920359 50.06428328 31.30410383 41.1892004 31.29580212 C37.40613861 31.29226458 33.62308163 31.29043819 29.84001827 31.28990841 C25.38808188 31.28890628 20.93618061 31.28282037 16.48425579 31.27274227 C14.84673814 31.26981325 13.20921645 31.26859271 11.57169628 31.26916981 C9.34352311 31.26965804 7.11544937 31.26402915 4.88729 31.2567606 C3.63809277 31.25508475 2.38889553 31.25340891 1.10184383 31.25168228 C-1.7936182 31.12304783 -1.7936182 31.12304783 -3.7936182 30.12304783 C-3.81827566 26.01132223 -3.83645779 21.89962505 -3.84854984 17.78784275 C-3.853589 16.38809555 -3.86042037 14.98835363 -3.86905766 13.588624 C-3.8811414 11.58059006 -3.88631627 9.57251825 -3.89127445 7.56445408 C-3.89651127 6.35474949 -3.90174809 5.1450449 -3.90714359 3.89868259 C-3.75405522 0.15575428 -3.74416129 0.16491549 0 0 Z " fill="#0090FD" transform="translate(549.7936182022095,670.8769521713257)"/>
<path d="M0 0 C0.6897125 -0.00453111 1.379425 -0.00906223 2.09003788 -0.01373065 C4.41239243 -0.02644016 6.73451444 -0.02475011 9.05690002 -0.02310181 C10.71733402 -0.02908295 12.37776523 -0.03588754 14.03819275 -0.04345703 C18.55674147 -0.0611657 23.07521452 -0.06581443 27.59379458 -0.0670886 C31.36137798 -0.06898447 35.12894362 -0.07633834 38.8965202 -0.08343279 C47.78250878 -0.0997326 56.66845681 -0.10460027 65.55445862 -0.10317993 C74.73174831 -0.10197785 83.90880307 -0.12308923 93.08603328 -0.15466726 C100.95613034 -0.1807861 108.82615046 -0.19154909 116.69629055 -0.19026911 C121.40081567 -0.18975821 126.10513209 -0.19551175 130.80961418 -0.21662521 C135.23294273 -0.23593405 139.65586191 -0.2361829 144.07920456 -0.22159195 C145.7050225 -0.21949361 147.33086558 -0.2242654 148.95664024 -0.23631287 C151.17177592 -0.2516678 153.38548275 -0.24252421 155.60058594 -0.22705078 C156.84148704 -0.22814032 158.08238813 -0.22922985 159.3608923 -0.2303524 C162.36378479 0.26742554 162.36378479 0.26742554 164.26321507 2.12849998 C165.69052579 4.90243726 165.73622344 6.94247538 165.72706604 10.05648804 C165.72609924 11.71551147 165.72609924 11.71551147 165.72511292 13.40805054 C165.70899963 14.55789429 165.69288635 15.70773804 165.67628479 16.89242554 C165.67950745 18.05000366 165.6827301 19.20758179 165.68605042 20.40023804 C165.63079225 29.00041808 165.63079225 29.00041808 163.36378479 31.26742554 C160.44991207 31.51631451 160.44991207 31.51631451 156.63818359 31.5146637 C155.58924749 31.51828532 155.58924749 31.51828532 154.51912075 31.52198011 C152.16443275 31.52763794 149.81001354 31.51893848 147.45533752 31.51034546 C145.77195665 31.51141782 144.08857613 31.51335581 142.40519714 31.51609802 C137.82477974 31.52095655 133.24445935 31.51327844 128.66405368 31.50314498 C123.87988817 31.49438215 119.09572586 31.49612157 114.31155396 31.49650574 C106.27727122 31.49556837 98.24302618 31.48687421 90.20875549 31.47323608 C80.9065463 31.45750446 71.6043784 31.45223812 62.30215687 31.45297164 C53.36940144 31.45358101 44.43665953 31.44848426 35.50390816 31.44017982 C31.69490008 31.43664011 27.88589678 31.4348156 24.07688713 31.43428612 C19.59622677 31.43328497 15.11560138 31.42720711 10.63495255 31.41711998 C8.98572694 31.4141878 7.33649732 31.41297105 5.68726921 31.41354752 C3.44560918 31.41403474 1.20404859 31.40841701 -1.03759766 31.40113831 C-2.29509103 31.39946246 -3.5525844 31.39778662 -4.84818363 31.39605999 C-7.63621521 31.26742554 -7.63621521 31.26742554 -8.63621521 30.26742554 C-8.89037071 25.62727229 -8.82144319 20.97621248 -8.82371521 16.32992554 C-8.8359613 15.01572632 -8.8482074 13.7015271 -8.86082458 12.34750366 C-8.86372498 10.46901733 -8.86372498 10.46901733 -8.86668396 8.55258179 C-8.87079285 7.39637329 -8.87490173 6.24016479 -8.87913513 5.04891968 C-8.37881335 -0.67989049 -4.87081162 0.01316012 0 0 Z " fill="#0291FD" transform="translate(554.6362152099609,733.7325744628906)"/>
<path d="M0 0 C1.89013651 0.00138269 1.89013651 0.00138269 3.8184576 0.00279331 C4.86717042 0.00151167 4.86717042 0.00151167 5.93706936 0.00020415 C8.29712931 -0.00145268 10.65711933 0.00407399 13.01717281 0.00952244 C14.70202794 0.00980429 16.38688319 0.00964661 18.07173824 0.00907993 C22.66038632 0.00879189 27.2490085 0.01468972 31.83765054 0.02165389 C36.62762812 0.0278863 41.41760623 0.02849114 46.20758724 0.0296793 C55.28467211 0.03279295 64.36174501 0.04100679 73.43882459 0.05102879 C83.76996761 0.06218888 94.10111119 0.06770011 104.43225873 0.07272422 C125.69030645 0.08318938 146.94834337 0.10078947 168.2063818 0.12304783 C171.00720266 5.35773163 170.5360417 10.3408861 170.5188818 16.18554783 C170.53499508 17.28705173 170.55110836 18.38855564 170.56770992 19.52343845 C170.56835445 20.57853611 170.56899899 21.63363377 170.56966305 22.72070408 C170.572644 23.6850034 170.57562496 24.64930271 170.57869625 25.64282322 C170.2063818 28.12304783 170.2063818 28.12304783 169.10581207 29.754673 C166.25553487 31.8080506 163.92855678 31.49774077 160.44318295 31.49726963 C159.40627421 31.50323124 159.40627421 31.50323124 158.34841782 31.50931329 C156.0266948 31.51895573 153.70557818 31.50710697 151.38387203 31.49536228 C149.72166879 31.49778959 148.059467 31.50150832 146.39726925 31.5064249 C141.87878399 31.51584517 137.3605149 31.50639936 132.8420465 31.49309278 C128.11974626 31.48179479 123.39745692 31.48588445 118.67514706 31.4878397 C110.7451743 31.48872311 102.81528695 31.47763168 94.88533688 31.45922947 C85.70750131 31.43805383 76.52979085 31.43455323 67.3519358 31.44079143 C58.53396697 31.4464789 49.71604234 31.44084719 40.89807987 31.42961788 C37.14013066 31.42496445 33.38220841 31.42410124 29.62425709 31.42620373 C25.20263933 31.4280824 20.78114955 31.42001536 16.35956097 31.40414333 C14.73333357 31.39988795 13.10709321 31.3990583 11.48086262 31.40183353 C9.26796528 31.40503798 7.05545457 31.39601804 4.84259701 31.38374424 C3.60207294 31.38169137 2.36154886 31.3796385 1.08343315 31.37752342 C-1.7936182 31.12304783 -1.7936182 31.12304783 -3.7936182 29.12304783 C-4.03653812 26.34155369 -4.03653812 26.34155369 -4.02408695 22.83789158 C-4.02215336 21.58556736 -4.02021976 20.33324314 -4.01822758 19.0429697 C-4.00598148 17.72877048 -3.99373539 16.41457127 -3.9811182 15.06054783 C-3.98047367 13.74248142 -3.97982914 12.42441502 -3.97916508 11.0664072 C-3.92865488 0.1730417 -3.92865488 0.1730417 0 0 Z " fill="#0291FD" transform="translate(549.7936182022095,797.8769521713257)"/>
</svg>
