<svg version="1.1" id="Layer_1" xmlns="http://www.w3.org/2000/svg" xmlns:xlink="http://www.w3.org/1999/xlink" x="0px" y="0px"
	 width="100%" viewBox="0 0 600 600" enable-background="new 0 0 600 600" xml:space="preserve">
<path fill="#FFFFFF" opacity="1.000000" stroke="none" 
	d="
M404.000000,601.000000 
	C269.333344,601.000000 135.166672,601.000000 1.000000,601.000000 
	C1.000000,401.000000 1.000000,201.000000 1.000000,1.000000 
	C201.000000,1.000000 401.000000,1.000000 601.000000,1.000000 
	C601.000000,201.000000 601.000000,401.000000 601.000000,601.000000 
	C535.500000,601.000000 470.000000,601.000000 404.000000,601.000000 
M387.608002,518.091187 
	C490.821045,476.133850 550.296387,370.212494 531.751770,261.381348 
	C509.723785,132.107895 383.126099,45.503372 254.638092,71.809990 
	C129.078049,97.517136 46.555237,220.610214 71.321312,345.542084 
	C98.976166,485.046265 248.056290,573.622864 387.608002,518.091187 
z"/>
<path fill="#4AA32C" opacity="1.000000" stroke="none" 
	d="
M387.250244,518.233398 
	C248.056290,573.622864 98.976166,485.046265 71.321312,345.542084 
	C46.555237,220.610214 129.078049,97.517136 254.638092,71.809990 
	C383.126099,45.503372 509.723785,132.107895 531.751770,261.381348 
	C550.296387,370.212494 490.821045,476.133850 387.250244,518.233398 
M198.617050,337.976440 
	C195.746292,322.646942 188.709946,309.846893 175.254440,300.901123 
	C177.680145,298.814453 179.596039,297.221558 181.451324,295.560913 
	C190.045517,287.868500 196.146454,278.583923 197.581696,267.023499 
	C199.158142,254.325790 200.087570,241.541458 201.048569,228.776016 
	C201.597946,221.478607 201.343292,214.116302 201.996323,206.832123 
	C202.957489,196.110947 206.962509,192.571350 217.744476,192.201691 
	C221.679382,192.066788 225.622787,192.179977 229.718353,192.179977 
	C229.718353,181.631516 229.718353,172.059753 229.718353,162.769638 
	C220.826675,162.769638 212.116013,161.894379 203.645264,162.948044 
	C184.795776,165.292709 173.729309,176.643478 170.996918,195.357208 
	C169.964020,202.431320 169.462982,209.589203 168.884216,216.722275 
	C167.618683,232.319061 167.069031,248.003067 165.072601,263.502747 
	C163.303604,277.236664 157.214203,281.975494 143.464142,283.147614 
	C141.227768,283.338257 139.020996,283.875885 136.888672,284.238190 
	C136.888672,295.476288 136.888672,306.098053 136.888672,317.048950 
	C138.854736,317.306976 140.633545,317.571930 142.419800,317.769836 
	C157.346634,319.423676 163.981323,325.361603 165.862610,340.286957 
	C167.128708,350.331635 167.083008,360.535767 167.825806,370.653778 
	C168.714127,382.754059 168.939331,394.991180 171.008484,406.898499 
	C175.458466,432.506653 205.096542,447.569092 229.526276,437.317810 
	C229.526276,428.052582 229.526276,418.787354 229.526276,408.861420 
	C224.294556,408.861420 219.322830,409.115387 214.387100,408.802124 
	C206.912659,408.327789 203.791824,405.314514 202.969849,398.102905 
	C202.461029,393.638977 202.268600,389.138336 201.957077,384.652618 
	C200.895996,369.373688 199.845093,354.094086 198.617050,337.976440 
M435.252319,228.235840 
	C434.830139,218.584091 434.765503,208.900513 433.910217,199.287292 
	C432.205719,180.128738 421.730988,167.263382 403.569397,163.822647 
	C394.587311,162.120972 385.072845,163.165878 375.799347,163.171921 
	C374.944031,163.172470 373.363037,164.639603 373.346497,165.450760 
	C373.167755,174.231064 373.234894,183.016388 373.234894,192.388550 
	C378.594330,192.388550 383.413422,192.101318 388.186035,192.450394 
	C397.175385,193.107880 400.533997,196.612488 401.236420,205.633774 
	C402.231995,218.419586 403.217255,231.207336 404.048676,244.004547 
	C405.459564,265.720306 407.517365,287.121002 427.910309,300.850189 
	C407.769745,320.902832 404.840820,327.743439 403.783813,356.669922 
	C403.339722,368.823486 402.867737,380.977905 402.211334,393.121246 
	C401.603180,404.371704 397.286163,408.447479 385.955872,409.026428 
	C382.022430,409.227386 378.094482,409.535187 374.245605,409.788818 
	C374.245605,419.927490 374.245605,429.482819 374.245605,438.964478 
	C382.467743,438.964478 390.328217,439.470428 398.102020,438.864594 
	C417.329559,437.366180 430.314240,425.152008 432.842102,406.163544 
	C434.290771,395.281647 435.031921,384.297455 435.841553,373.340820 
	C436.688354,361.881134 436.852386,350.360229 438.018738,338.937958 
	C439.237762,327.000183 445.559845,320.833435 457.353729,318.750793 
	C459.646851,318.345886 462.043854,318.357941 464.249054,317.697357 
	C465.384949,317.357086 467.022827,315.975891 467.041077,315.037933 
	C467.241272,304.746826 467.166656,294.450348 467.166656,283.991699 
	C464.527161,283.655640 462.397461,283.282654 460.252045,283.128052 
	C447.047913,282.176636 441.368866,277.955475 439.095123,264.878998 
	C437.049408,253.113922 436.492584,241.089935 435.252319,228.235840 
M224.946198,284.267883 
	C216.579727,290.390076 213.724915,298.592957 216.935425,307.285706 
	C219.956085,315.464417 227.888107,320.377441 237.048386,319.743561 
	C245.818314,319.136719 252.871170,313.162628 254.497635,304.539703 
	C255.907623,297.064636 253.631699,290.599976 247.642563,285.888458 
	C240.844254,280.540405 233.343521,280.252106 224.946198,284.267883 
M368.621063,319.822571 
	C377.482483,320.162292 383.044464,315.390778 386.416107,307.811096 
	C389.638428,300.567139 388.428558,293.780609 382.989197,287.933350 
	C377.511108,282.044434 368.795563,280.066467 361.401611,282.886719 
	C352.986908,286.096375 347.980682,294.169250 348.950256,302.965424 
	C349.963440,312.157135 356.906952,318.359650 368.621063,319.822571 
M304.101471,319.651978 
	C308.087433,317.819458 312.783752,316.780823 315.908051,313.985291 
	C321.973236,308.558380 322.509003,297.151093 318.046906,289.911011 
	C313.781036,282.989288 304.069611,279.735718 295.537872,282.369904 
	C287.461792,284.863373 282.597717,292.009338 282.813080,301.064209 
	C283.097870,313.037842 290.120087,319.448486 304.101471,319.651978 
z"/>
<path fill="#FDFEFD" opacity="1.000000" stroke="none" 
	d="
M198.703674,338.395569 
	C199.845093,354.094086 200.895996,369.373688 201.957077,384.652618 
	C202.268600,389.138336 202.461029,393.638977 202.969849,398.102905 
	C203.791824,405.314514 206.912659,408.327789 214.387100,408.802124 
	C219.322830,409.115387 224.294556,408.861420 229.526276,408.861420 
	C229.526276,418.787354 229.526276,428.052582 229.526108,437.319092 
	C205.096542,447.569092 175.458466,432.506653 171.008484,406.898499 
	C168.939331,394.991180 168.714127,382.754059 167.825806,370.653778 
	C167.083008,360.535767 167.128708,350.331635 165.862610,340.286957 
	C163.981323,325.361603 157.346634,319.423676 142.419800,317.769836 
	C140.633545,317.571930 138.854736,317.306976 136.888672,317.048950 
	C136.888672,306.098053 136.888672,295.476288 136.888672,284.238190 
	C139.020996,283.875885 141.227768,283.338257 143.464142,283.147614 
	C157.214203,281.975494 163.303604,277.236664 165.072601,263.502747 
	C167.069031,248.003067 167.618683,232.319061 168.884216,216.722275 
	C169.462982,209.589203 169.964020,202.431320 170.996918,195.357208 
	C173.729309,176.643478 184.795776,165.292709 203.645264,162.948044 
	C212.116013,161.894379 220.826675,162.769638 229.718353,162.769638 
	C229.718353,172.059753 229.718353,181.631516 229.718353,192.179977 
	C225.622787,192.179977 221.679382,192.066788 217.744476,192.201691 
	C206.962509,192.571350 202.957489,196.110947 201.996323,206.832123 
	C201.343292,214.116302 201.597946,221.478607 201.048569,228.776016 
	C200.087570,241.541458 199.158142,254.325790 197.581696,267.023499 
	C196.146454,278.583923 190.045517,287.868500 181.451324,295.560913 
	C179.596039,297.221558 177.680145,298.814453 175.254440,300.901123 
	C188.709946,309.846893 195.746292,322.646942 198.703674,338.395569 
z"/>
<path fill="#FDFEFD" opacity="1.000000" stroke="none" 
	d="
M435.265686,228.707993 
	C436.492584,241.089935 437.049408,253.113922 439.095123,264.878998 
	C441.368866,277.955475 447.047913,282.176636 460.252045,283.128052 
	C462.397461,283.282654 464.527161,283.655640 467.166656,283.991699 
	C467.166656,294.450348 467.241272,304.746826 467.041077,315.037933 
	C467.022827,315.975891 465.384949,317.357086 464.249054,317.697357 
	C462.043854,318.357941 459.646851,318.345886 457.353729,318.750793 
	C445.559845,320.833435 439.237762,327.000183 438.018738,338.937958 
	C436.852386,350.360229 436.688354,361.881134 435.841553,373.340820 
	C435.031921,384.297455 434.290771,395.281647 432.842102,406.163544 
	C430.314240,425.152008 417.329559,437.366180 398.102020,438.864594 
	C390.328217,439.470428 382.467743,438.964478 374.245605,438.964478 
	C374.245605,429.482819 374.245605,419.927490 374.245605,409.788818 
	C378.094482,409.535187 382.022430,409.227386 385.955872,409.026428 
	C397.286163,408.447479 401.603180,404.371704 402.211334,393.121246 
	C402.867737,380.977905 403.339722,368.823486 403.783813,356.669922 
	C404.840820,327.743439 407.769745,320.902832 427.910309,300.850189 
	C407.517365,287.121002 405.459564,265.720306 404.048676,244.004547 
	C403.217255,231.207336 402.231995,218.419586 401.236420,205.633774 
	C400.533997,196.612488 397.175385,193.107880 388.186035,192.450394 
	C383.413422,192.101318 378.594330,192.388550 373.234894,192.388550 
	C373.234894,183.016388 373.167755,174.231064 373.346497,165.450760 
	C373.363037,164.639603 374.944031,163.172470 375.799347,163.171921 
	C385.072845,163.165878 394.587311,162.120972 403.569397,163.822647 
	C421.730988,167.263382 432.205719,180.128738 433.910217,199.287292 
	C434.765503,208.900513 434.830139,218.584091 435.265686,228.707993 
z"/>
<path fill="#FCFDFC" opacity="1.000000" stroke="none" 
	d="
M225.279907,284.096252 
	C233.343521,280.252106 240.844254,280.540405 247.642563,285.888458 
	C253.631699,290.599976 255.907623,297.064636 254.497635,304.539703 
	C252.871170,313.162628 245.818314,319.136719 237.048386,319.743561 
	C227.888107,320.377441 219.956085,315.464417 216.935425,307.285706 
	C213.724915,298.592957 216.579727,290.390076 225.279907,284.096252 
z"/>
<path fill="#FCFDFB" opacity="1.000000" stroke="none" 
	d="
M368.194946,319.799133 
	C356.906952,318.359650 349.963440,312.157135 348.950256,302.965424 
	C347.980682,294.169250 352.986908,286.096375 361.401611,282.886719 
	C368.795563,280.066467 377.511108,282.044434 382.989197,287.933350 
	C388.428558,293.780609 389.638428,300.567139 386.416107,307.811096 
	C383.044464,315.390778 377.482483,320.162292 368.194946,319.799133 
z"/>
<path fill="#FCFDFB" opacity="1.000000" stroke="none" 
	d="
M303.680237,319.690704 
	C290.120087,319.448486 283.097870,313.037842 282.813080,301.064209 
	C282.597717,292.009338 287.461792,284.863373 295.537872,282.369904 
	C304.069611,279.735718 313.781036,282.989288 318.046906,289.911011 
	C322.509003,297.151093 321.973236,308.558380 315.908051,313.985291 
	C312.783752,316.780823 308.087433,317.819458 303.680237,319.690704 
z"/>
</svg>