<?xml version="1.0" encoding="UTF-8"?>
<svg version="1.1" xmlns="http://www.w3.org/2000/svg" width="500" height="501">
<path d="M0 0 C0.58426758 0.44786865 1.16853516 0.8957373 1.77050781 1.35717773 C5.15939669 4.02362522 7.88303672 6.77742889 10.4375 10.25 C9.47070312 10.39695313 8.50390625 10.54390625 7.5078125 10.6953125 C-3.84186771 12.58156857 -12.59555538 15.88407276 -20.09375 25.09765625 C-27.2581324 35.59652514 -28.15948934 48.08167273 -26.01953125 60.3671875 C-22.3604286 72.49548079 -15.27899226 84.11282377 -8.5 94.75 C7.7811668 120.64134843 15.07384772 149.96654656 8.47167969 180.23461914 C5.34670299 193.38365728 1.35080162 206.31892147 -2.5625 219.25 C-2.82411926 220.11544434 -3.08573853 220.98088867 -3.35528564 221.87255859 C-6.87849091 233.52334359 -10.42612772 245.16661011 -13.98428345 256.8067627 C-16.81668453 266.07507483 -19.62961723 275.34923536 -22.4375 284.625 C-22.86448802 286.03499771 -23.29148946 287.44499135 -23.71850586 288.85498047 C-24.66677092 291.98657293 -25.6147915 295.11823907 -26.5625 298.25 C-27.2225 298.25 -27.8825 298.25 -28.5625 298.25 C-28.91328613 297.19240479 -29.26407227 296.13480957 -29.62548828 295.04516602 C-35.70583769 276.7219 -41.79990582 258.40445641 -48.07318115 240.14620972 C-55.48853118 218.56368585 -62.68890014 196.91066718 -69.89189911 175.25661469 C-76.36573222 155.79549559 -82.84323713 136.33703597 -89.5 116.9375 C-89.77104553 116.14737518 -90.04209106 115.35725037 -90.3213501 114.54318237 C-90.8479152 113.0083682 -91.37450549 111.47356266 -91.90112305 109.93876648 C-92.27684448 108.84372551 -92.27684448 108.84372551 -92.66015625 107.7265625 C-92.90258057 107.02018143 -93.14500488 106.31380035 -93.39477539 105.58601379 C-95.87853422 98.34166477 -98.33170619 91.08715188 -100.76321411 83.82510376 C-101.20574065 82.50425368 -101.64929016 81.1837458 -102.09396362 79.86361694 C-102.68805208 78.09889178 -103.27775514 76.33269204 -103.8671875 74.56640625 C-104.19702637 73.58099854 -104.52686523 72.59559082 -104.86669922 71.58032227 C-105.5625 69.25 -105.5625 69.25 -105.5625 67.25 C-104.76553711 67.17483154 -103.96857422 67.09966309 -103.14746094 67.0222168 C-99.53438476 66.67391457 -95.92357586 66.30593972 -92.3125 65.9375 C-90.43111328 65.76057617 -90.43111328 65.76057617 -88.51171875 65.58007812 C-87.30644531 65.45439453 -86.10117187 65.32871094 -84.859375 65.19921875 C-83.74916992 65.08924561 -82.63896484 64.97927246 -81.49511719 64.8659668 C-78.37881813 64.21141947 -76.85144816 63.42919947 -74.5625 61.25 C-73.24470642 57.9994425 -73.52100818 56.40411248 -74.4375 53 C-76.37336159 49.8736269 -76.37336159 49.8736269 -80.20703125 49.51953125 C-86.52903533 48.99941418 -92.82644465 49.57643584 -99.13677979 50.03015137 C-112.14854565 50.94488869 -125.14332897 51.49527898 -138.1875 51.5 C-138.91096619 51.50058411 -139.63443237 51.50116821 -140.37982178 51.50177002 C-149.52526594 51.48835694 -158.63781842 51.18820424 -167.76953125 50.69140625 C-169.17685516 50.6157695 -169.17685516 50.6157695 -170.61260986 50.53860474 C-175.20255962 50.287013 -179.78931696 50.01126909 -184.37548828 49.69824219 C-186.04067691 49.59678834 -187.70587812 49.49554086 -189.37109375 49.39453125 C-190.12775833 49.33527969 -190.88442291 49.27602814 -191.66401672 49.21498108 C-196.20076938 48.95623659 -199.02899492 49.29737952 -202.5625 52.25 C-203.89910145 55.60592863 -203.89910145 55.60592863 -203.5625 59.25 C-201.30477082 62.70634056 -199.84259618 63.93428528 -195.80664062 64.9296875 C-192.45718311 65.41606388 -189.12149131 65.76595987 -185.75 66.0625 C-184.58017578 66.18302734 -183.41035156 66.30355469 -182.20507812 66.42773438 C-179.32558178 66.72156053 -176.44564081 66.99488572 -173.5625 67.25 C-172.76416154 69.41139884 -171.96600153 71.57286329 -171.16796875 73.734375 C-170.90849457 74.43705002 -170.64902039 75.13972504 -170.38168335 75.86369324 C-168.8868006 79.91373932 -167.39507209 83.96491644 -165.90795898 88.01782227 C-162.53420215 97.20822461 -159.14066017 106.39029549 -155.69847107 115.55532837 C-153.93228706 120.26521988 -152.1789757 124.97985 -150.42739868 129.69519043 C-149.56059525 132.01947558 -148.68819289 134.34168054 -147.81015015 136.66174316 C-146.56848335 139.94504169 -145.34672474 143.2351385 -144.12890625 146.52734375 C-143.75253021 147.50817429 -143.37615417 148.48900482 -142.9883728 149.4995575 C-142.65262238 150.41872452 -142.31687195 151.33789154 -141.97094727 152.28491211 C-141.67342056 153.07852646 -141.37589386 153.87214081 -141.0693512 154.68980408 C-139.55139477 162.35727312 -143.37943242 170.27200396 -145.77514648 177.42138672 C-146.21588467 178.75066616 -146.65611786 180.08011314 -147.09588623 181.40971375 C-148.28654805 185.00412564 -149.48478095 188.59596965 -150.68483996 192.18725348 C-151.6862874 195.18647677 -152.68400419 198.18693537 -153.68173081 201.18739808 C-156.03378508 208.26053479 -158.39198102 215.33160269 -160.75415039 222.40136719 C-163.19298072 229.70089469 -165.62192186 237.00365898 -168.04598755 244.30810153 C-170.12805146 250.58093839 -172.21590078 256.85182817 -174.30851036 263.1211549 C-175.55820079 266.8652877 -176.80571585 270.61010966 -178.04778862 274.35677719 C-179.21400197 277.87369714 -180.38740978 281.38813252 -181.56651306 284.90075111 C-182.20569198 286.81085126 -182.83744028 288.72343283 -183.4690094 290.63606262 C-183.8489505 291.76323196 -184.2288916 292.89040131 -184.62034607 294.05172729 C-184.94904914 295.03725019 -185.27775221 296.02277309 -185.61641598 297.03816032 C-186.5625 299.25 -186.5625 299.25 -188.5625 300.25 C-196.77261573 276.28562725 -204.93513538 252.30505733 -213.0625 228.3125 C-213.29357704 227.63037067 -213.52465408 226.94824135 -213.76273346 226.24544144 C-221.73566222 202.70586355 -229.61588185 179.13611923 -237.45825195 155.55276489 C-243.86816776 136.2783025 -250.34060432 117.0269519 -256.94470215 97.81799316 C-259.29469831 90.97886711 -261.63007818 84.13486659 -263.9375 77.28125 C-264.20062988 76.50672485 -264.46375977 75.73219971 -264.73486328 74.9342041 C-266.5625 69.48048451 -266.5625 69.48048451 -266.5625 67.25 C-265.76553711 67.17483154 -264.96857422 67.09966309 -264.14746094 67.0222168 C-260.53438476 66.67391457 -256.92357586 66.30593972 -253.3125 65.9375 C-251.43111328 65.76057617 -251.43111328 65.76057617 -249.51171875 65.58007812 C-247.70380859 65.39155273 -247.70380859 65.39155273 -245.859375 65.19921875 C-244.19406738 65.03425903 -244.19406738 65.03425903 -242.49511719 64.8659668 C-239.36926361 64.20941264 -237.83710122 63.4635672 -235.5625 61.25 C-234.4397556 57.80691716 -234.36075073 55.89847981 -235.4375 52.4375 C-238.62821627 49.15293913 -242.18809464 49.38304062 -246.5625 49.25 C-250.99538973 49.39915295 -255.41230018 49.70304699 -259.83477783 50.02960205 C-278.08923118 51.36080066 -296.26893176 51.47490674 -314.5625 51.25 C-311.42166331 45.21439493 -307.97589111 39.85155899 -303.625 34.625 C-303.06723877 33.94767822 -302.50947754 33.27035645 -301.93481445 32.57250977 C-297.83970601 27.6548479 -293.6000579 22.8805626 -289.25 18.1875 C-288.70029541 17.59308105 -288.15059082 16.99866211 -287.58422852 16.38623047 C-274.36998082 2.37285327 -258.39736452 -9.47533231 -241.5625 -18.75 C-240.8504541 -19.1517041 -240.1384082 -19.5534082 -239.40478516 -19.96728516 C-163.01207248 -62.92477729 -68.56031105 -52.95489928 0 0 Z " fill="#20749B" transform="translate(384.5625,81.75)"/>
<path d="M0 0 C0.90045044 -0.00705963 1.80090088 -0.01411926 2.7286377 -0.02139282 C40.51335421 -0.25041822 40.51335421 -0.25041822 57.20703125 3.203125 C58.18478516 3.40180176 59.16253906 3.60047852 60.16992188 3.80517578 C92.51750242 10.57383096 123.89762626 22.32842481 151.20703125 41.203125 C151.79935547 41.60450684 152.39167969 42.00588867 153.00195312 42.41943359 C161.88787607 48.45736563 170.16890767 55.08225012 178.20703125 62.203125 C178.74183105 62.67476074 179.27663086 63.14639648 179.82763672 63.63232422 C226.73311231 105.23997499 256.78643402 164.62975367 262.20703125 227.203125 C262.36608867 230.53391065 262.41640423 233.86108433 262.4453125 237.1953125 C262.45510635 238.13076904 262.46490021 239.06622559 262.47499084 240.0300293 C262.64447025 260.41902424 262.56180048 280.18908286 258.20703125 300.203125 C257.88557129 301.72655518 257.88557129 301.72655518 257.55761719 303.28076172 C248.50511341 345.18976937 228.76131944 384.22671212 200.20703125 416.203125 C199.73297852 416.7388916 199.25892578 417.2746582 198.77050781 417.82666016 C156.96859454 464.8922078 97.09164611 495.23610926 34.20703125 500.203125 C30.94218581 500.34728503 27.68182593 500.38908556 24.4140625 500.40625 C23.06338684 500.41683945 23.06338684 500.41683945 21.6854248 500.42764282 C-16.09929171 500.65666822 -16.09929171 500.65666822 -32.79296875 497.203125 C-34.25959961 496.90510986 -34.25959961 496.90510986 -35.75585938 496.60107422 C-67.99058847 489.85603294 -99.65367916 478.18629225 -126.79296875 459.203125 C-127.41768066 458.76935547 -128.04239258 458.33558594 -128.68603516 457.88867188 C-137.81672974 451.49649586 -146.43513546 444.57086839 -154.79296875 437.203125 C-155.29924805 436.76000977 -155.80552734 436.31689453 -156.32714844 435.86035156 C-202.93151234 394.88323262 -232.44502607 334.93779902 -237.79296875 273.203125 C-237.95202617 269.87233935 -238.00234173 266.54516567 -238.03125 263.2109375 C-238.04104385 262.27548096 -238.05083771 261.34002441 -238.06092834 260.3762207 C-238.23040775 239.98722576 -238.14773798 220.21716714 -233.79296875 200.203125 C-233.47150879 198.67969482 -233.47150879 198.67969482 -233.14355469 197.12548828 C-226.8224161 167.86146897 -215.41001618 139.19263375 -198.79296875 114.203125 C-198.3448584 113.52878418 -197.89674805 112.85444336 -197.43505859 112.15966797 C-190.54475258 101.9023224 -183.03528504 92.39861543 -174.79296875 83.203125 C-173.87873692 82.16551375 -172.9646708 81.12775647 -172.05078125 80.08984375 C-129.67238419 32.43332627 -64.16941519 0.33705989 0 0 Z M-162.83984375 88.30859375 C-164.55256755 90.2290489 -166.17287335 92.20364017 -167.79296875 94.203125 C-168.76340049 95.35104086 -169.73486416 96.49808468 -170.70703125 97.64453125 C-178.57315426 107.01114215 -185.49204636 116.72210158 -191.79296875 127.203125 C-192.21674805 127.90630859 -192.64052734 128.60949219 -193.07714844 129.33398438 C-209.15713129 156.35231068 -218.56804442 185.30698157 -223.79296875 216.203125 C-223.92574219 216.97333984 -224.05851563 217.74355469 -224.1953125 218.53710938 C-233.90402708 277.71663367 -215.70828653 340.87350891 -181.32006836 389.10668945 C-170.54884207 403.91089921 -158.03902596 418.66016583 -143.79296875 430.203125 C-142.64505289 431.17355674 -141.49800907 432.14502041 -140.3515625 433.1171875 C-130.9849516 440.98331051 -121.27399217 447.90220261 -110.79296875 454.203125 C-109.73819336 454.83879395 -109.73819336 454.83879395 -108.66210938 455.48730469 C-54.14297677 487.93441883 10.97946216 496.39263429 72.28759766 480.98486328 C112.51556359 470.21299951 147.42437868 449.6532671 177.76953125 421.390625 C178.41212891 420.79282227 179.05472656 420.19501953 179.71679688 419.57910156 C184.17457817 415.35655325 188.23857235 410.88538926 192.20703125 406.203125 C192.73176025 405.58993408 193.25648926 404.97674316 193.79711914 404.3449707 C202.16315497 394.49567926 209.54934416 384.27759473 216.20703125 373.203125 C216.8427002 372.14834961 216.8427002 372.14834961 217.49121094 371.07226562 C249.88648722 316.64023338 258.37783829 251.33251912 242.97998047 190.10498047 C230.93767845 144.89499884 204.95528422 99.97863253 168.20703125 70.203125 C167.05911539 69.23269326 165.91207157 68.26122959 164.765625 67.2890625 C155.3990141 59.42293949 145.68805467 52.50404739 135.20703125 46.203125 C134.50384766 45.7793457 133.80066406 45.35556641 133.07617188 44.91894531 C50.61280362 -4.15920753 -54.16644545 2.80963321 -162.83984375 88.30859375 Z " fill="#20749B" transform="translate(237.79296875,-0.203125)"/>
<path d="M0 0 C2.80712193 1.40356097 2.88511378 2.90291926 3.93261719 5.8347168 C4.30828827 6.87474854 4.68395935 7.91478027 5.0710144 8.98632812 C5.4755484 10.12908203 5.8800824 11.27183594 6.296875 12.44921875 C6.7217923 13.63104736 7.14670959 14.81287598 7.58450317 16.03051758 C8.50041106 18.58041777 9.41370864 21.13108119 10.32269287 23.68344116 C11.75870756 27.71520042 13.20467271 31.74334134 14.65283203 35.77075195 C15.13749307 37.11887713 15.62214275 38.4670064 16.10678101 39.81513977 C16.34583538 40.48009272 16.58488976 41.14504566 16.8311882 41.8301487 C17.55530433 43.84546673 18.27847912 45.86112019 19.00137329 47.87687683 C22.57292716 57.83367718 26.19927777 67.76875412 29.875 77.6875 C35.99961738 94.24046197 42.0569972 110.81782297 48.10782623 127.39786148 C48.86151452 129.46304835 49.61528875 131.52820383 50.36907959 133.59335327 C53.5815102 142.39479503 56.79179492 151.19701698 60 160 C60.41044556 161.12615723 60.82089111 162.25231445 61.24377441 163.41259766 C62.37399896 166.51445025 63.50356762 169.61654063 64.6328125 172.71875 C65.12852249 174.07933533 65.12852249 174.07933533 65.63424683 175.46740723 C65.93428619 176.29220581 66.23432556 177.11700439 66.54345703 177.96679688 C66.80256866 178.67864136 67.0616803 179.39048584 67.3286438 180.12390137 C67.90754566 181.7416372 68.4566588 183.3699764 69 185 C28.96866173 198.58529579 -12.64028072 200.92044985 -54 191.5 C-54.89710693 191.29866455 -55.79421387 191.0973291 -56.71850586 190.88989258 C-57.53327393 190.68904053 -58.34804199 190.48818848 -59.1875 190.28125 C-59.90292969 190.10658203 -60.61835938 189.93191406 -61.35546875 189.75195312 C-62.16951172 189.37973633 -62.16951172 189.37973633 -63 189 C-64.17315916 185.48052253 -63.78209367 184.62524938 -62.60742188 181.20117188 C-62.27477325 180.21732513 -61.94212463 179.23347839 -61.59939575 178.21981812 C-61.22628265 177.14696564 -60.85316956 176.07411316 -60.46875 174.96875 C-60.0865329 173.84731598 -59.7043158 172.72588196 -59.31051636 171.57046509 C-58.26673322 168.51439242 -57.21486389 165.46125372 -56.15917206 162.40927887 C-55.05365591 159.20717313 -53.95849948 156.00152582 -52.86181641 152.79638672 C-47.16564456 136.16756814 -41.38816702 119.56675726 -35.57080078 102.97998047 C-30.38075889 88.1693476 -25.33339062 73.31170914 -20.29879761 58.44763184 C-13.67950227 38.91265215 -6.89701848 19.43854375 0 0 Z " fill="#20749B" transform="translate(253,268)"/>
<path d="M0 0 C1.78133135 2.67199703 2.77367856 4.79936265 3.86914062 7.77954102 C4.2320369 8.76108658 4.59493317 9.74263214 4.96882629 10.75392151 C5.36067612 11.82641647 5.75252594 12.89891144 6.15625 14.00390625 C6.7775605 15.69077797 6.7775605 15.69077797 7.41142273 17.41172791 C8.54218268 20.48514438 9.66924771 23.55988343 10.79442978 26.63534546 C11.74082798 29.2202839 12.6901845 31.80413201 13.63941097 34.38803291 C20.64230904 53.45443431 27.54415525 72.55654741 34.40283203 91.67529297 C39.86195631 106.88526234 45.40844668 122.06166645 50.99407959 137.22558594 C57.39506393 154.60391214 63.73523114 172.0036918 70.0506897 189.41326904 C74.94036992 202.88923206 79.85841944 216.35415103 84.828125 229.80078125 C85.31439358 231.11709352 85.80065562 232.4334082 86.28691101 233.74972534 C88.61543908 240.05167357 90.94818296 246.35202035 93.28637695 252.65039062 C94.12980674 254.92965542 94.97315413 257.20895071 95.81640625 259.48828125 C96.38690704 261.01900017 96.38690704 261.01900017 96.96893311 262.5806427 C99.21442171 268.66031864 101.22007403 274.76783211 103 281 C98.39199728 280.2000405 94.78222915 278.49248107 90.75 276.1875 C89.71033081 275.59678711 89.71033081 275.59678711 88.6496582 274.99414062 C67.8182889 262.90227481 47.0918584 246.89912268 32 228 C31.1853125 227.01128906 30.370625 226.02257812 29.53125 225.00390625 C-7.2915315 179.77313569 -24.09850725 122.16823499 -18.1796875 64.17895508 C-15.57596372 42.08019575 -10.33484119 19.8329447 0 0 Z " fill="#20749B" transform="translate(54,162)"/>
<path d="M0 0 C3.30356466 3.06256453 4.95380408 6.64548832 6.8125 10.6875 C7.1636084 11.44788574 7.5147168 12.20827148 7.87646484 12.99169922 C17.30190775 33.69163642 23.2461837 55.41112702 26 78 C26.0942627 78.75450439 26.18852539 79.50900879 26.28564453 80.28637695 C32.71505651 137.02967566 14.89187956 192.0802614 -19.2734375 236.98828125 C-23.63156524 242.45619245 -28.31949712 247.61667832 -33.0625 252.75 C-33.6282373 253.36439941 -34.19397461 253.97879883 -34.77685547 254.61181641 C-45.91686744 266.50240793 -59.32582316 276.48376216 -72.9375 285.375 C-73.81462646 285.95580322 -73.81462646 285.95580322 -74.70947266 286.54833984 C-76.09911337 287.43273233 -77.54552982 288.22684551 -79 289 C-79.66 288.67 -80.32 288.34 -81 288 C-72.36447488 262.45677326 -63.71923032 236.91827728 -54.80154419 211.47195435 C-48.69581305 194.04729167 -42.68829175 176.58938124 -36.68884277 159.1279335 C-31.33729449 143.55314009 -25.97043915 127.9845798 -20.48760986 112.4553833 C-18.97661171 108.17251213 -17.47362421 103.8868219 -15.97045898 99.60119629 C-14.91195449 96.58566264 -13.84728342 93.57257573 -12.77197266 90.56298828 C-5.5099911 70.21536277 0.2492109 49.00475768 0.09765625 27.24609375 C0.0962413 26.45977066 0.09482635 25.67344757 0.09336853 24.86329651 C0.08783672 22.38798985 0.07529775 19.91277863 0.0625 17.4375 C0.05747616 15.74414194 0.05291481 14.05078245 0.04882812 12.35742188 C0.03788978 8.2382453 0.02067362 4.11913875 0 0 Z " fill="#20749B" transform="translate(438,147)"/>
</svg>
