<?xml version="1.0" encoding="UTF-8"?>
<svg version="1.1" xmlns="http://www.w3.org/2000/svg" width="512" height="512">
<path d="M0 0 C1.73703466 -0.00417486 3.4740666 -0.00965321 5.21109349 -0.01631981 C9.97576021 -0.03077311 14.74025394 -0.02653004 19.50493014 -0.019153 C24.64681219 -0.01442339 29.78865671 -0.02692933 34.93052673 -0.03717041 C45.0003551 -0.05436753 55.0701211 -0.05519655 65.13996034 -0.04995751 C73.32429135 -0.04591643 81.50860391 -0.04735862 89.69293404 -0.05270576 C90.85767869 -0.05345419 92.02242335 -0.05420261 93.2224633 -0.05497371 C95.58861645 -0.05650518 97.9547696 -0.05804353 100.32092274 -0.05958868 C122.51059739 -0.07331692 144.70023679 -0.06787365 166.88991065 -0.05640347 C187.19148335 -0.0464698 207.49296494 -0.05941352 227.79452359 -0.08333766 C248.64016856 -0.10771791 269.48577107 -0.11733923 290.33143002 -0.11068493 C302.03471563 -0.10719045 313.73793114 -0.10943996 325.44120598 -0.12693596 C335.403449 -0.14164444 345.36557256 -0.142311 355.3278132 -0.12486505 C360.41045239 -0.11634175 365.49287805 -0.11423806 370.57550621 -0.1295166 C375.22961164 -0.14333381 379.88332 -0.13863871 384.53740228 -0.11927737 C386.21967976 -0.11550795 387.90198881 -0.1184664 389.58423822 -0.12888902 C405.69116697 -0.221574 405.69116697 -0.221574 413.11573792 4.38768005 C413.92526917 4.86850037 414.73480042 5.34932068 415.56886292 5.8447113 C422.50678215 11.0783156 426.80010545 16.88526164 429.11573792 25.38768005 C429.52132528 28.72457416 429.53416846 32.02168066 429.51687622 35.3802948 C429.52367289 36.35871598 429.53046956 37.33713715 429.53747219 38.34520745 C429.55639492 41.60914887 429.5540105 44.87271345 429.55152893 48.13670349 C429.56050954 50.48292013 429.57071848 52.82913234 429.58206177 55.17533875 C429.60853567 61.53912792 429.61559417 67.90279602 429.61750913 74.26663494 C429.62000174 78.91369483 429.62870485 83.56072789 429.63801856 88.20777829 C429.6629156 100.71252502 429.67414756 113.21720778 429.67200936 125.7219784 C429.67188949 126.43118143 429.67176962 127.14038446 429.67164612 127.87107849 C429.67152348 128.5811543 429.67140083 129.29123011 429.67127448 130.02282336 C429.6700557 141.5247518 429.69875333 153.02638532 429.74106122 164.52822849 C429.78422789 176.35753048 429.80486763 188.18668887 429.80227989 200.01607156 C429.80128654 206.64963271 429.81000383 213.28292213 429.84181404 219.91641998 C429.87092814 226.15795215 429.87104695 232.39883292 429.84926414 238.64038849 C429.84613532 240.92519587 429.85316364 243.21004431 429.87134552 245.49478149 C429.98064754 260.18652785 429.49212841 270.53380615 419.24073792 281.88768005 C412.28996663 288.29250953 405.43288817 290.50872568 396.10780144 290.52190113 C395.04422946 290.52542948 395.04422946 290.52542948 393.95917118 290.5290291 C391.57114906 290.53571301 389.18318144 290.53526106 386.79515076 290.53485107 C385.07053327 290.53815008 383.34591655 290.54187572 381.62130082 290.54599255 C376.87238376 290.55601651 372.12347934 290.55972998 367.3745532 290.56238186 C362.25645122 290.56628372 357.13835926 290.57586213 352.02026367 290.58459473 C339.65544414 290.60436217 327.29062378 290.61442557 314.9257924 290.62332252 C309.10431215 290.62770484 303.28283282 290.63307178 297.4613533 290.63831139 C278.11186601 290.65532372 258.76237929 290.66981829 239.41288567 290.67706013 C234.39098485 290.67897005 229.36908403 290.68089038 224.34718323 290.68284607 C222.47490951 290.68357168 222.47490951 290.68357168 220.56481208 290.68431195 C200.3412657 290.69261375 180.11777844 290.7179532 159.89425789 290.75042675 C139.13575398 290.78348786 118.37728012 290.80150802 97.61874974 290.80470437 C85.96175224 290.80687031 74.30484096 290.81563133 62.64786911 290.84116554 C52.72106948 290.86285954 42.79437702 290.87092932 32.86755638 290.86119876 C27.80303954 290.85665036 22.73874387 290.85857183 17.67425728 290.87796021 C13.03537383 290.89556582 8.39687333 290.89461522 3.75798596 290.87906291 C2.08229475 290.8766829 0.40657719 290.88103079 -1.26907374 290.89289156 C-13.47331349 290.97390686 -23.02466142 289.82159796 -32.20457458 281.1025238 C-39.69496816 273.45535455 -42.49709142 265.85206703 -42.39219666 255.25462341 C-42.39843662 254.27323112 -42.40467658 253.29183882 -42.41110563 252.28070736 C-42.4269808 249.01273056 -42.41445252 245.74550531 -42.40184021 242.4775238 C-42.40726374 240.12629259 -42.41438769 237.77506478 -42.42308044 235.42384338 C-42.44128901 229.05198939 -42.43425624 222.68039496 -42.4215641 216.30853653 C-42.41245233 210.31129328 -42.41941414 204.3140736 -42.42527288 198.31683099 C-42.43666425 185.71505254 -42.42358771 173.1133907 -42.40207142 160.51163137 C-42.38420171 149.71146683 -42.38730622 138.9114743 -42.40574646 128.11131287 C-42.42717876 115.55296404 -42.43556575 102.99471729 -42.42329741 90.43635273 C-42.41698459 83.79459638 -42.41621362 77.15293577 -42.42944336 70.51118469 C-42.44101381 64.26645513 -42.43295373 58.0220498 -42.40986633 51.77735519 C-42.40458571 49.48807691 -42.40608189 47.19877126 -42.41491699 44.90950394 C-42.4258812 41.7795488 -42.41209736 38.65062641 -42.39219666 35.52073669 C-42.40111954 34.61926375 -42.41004243 33.71779081 -42.41923571 32.78900051 C-42.30167973 23.22781509 -38.27666231 15.39326015 -31.88426208 8.38768005 C-22.43759411 -0.16988976 -12.01944496 -0.04687414 0 0 Z M-15.88426208 26.38768005 C-19.35945078 31.28410881 -19.31021853 35.88211634 -19.26521301 41.65539551 C-19.26989298 42.57987706 -19.27457296 43.50435861 -19.27939475 44.45685476 C-19.29134622 47.54990991 -19.28188681 50.64252212 -19.27244568 53.73558044 C-19.27651127 55.95492817 -19.28185309 58.17427386 -19.28837585 60.39361572 C-19.30205579 66.41824785 -19.29674813 72.4427259 -19.2872386 78.46736073 C-19.27964652 84.76977916 -19.28668627 91.07218434 -19.29139709 97.37460327 C-19.29720523 108.63547419 -19.28787976 119.89628155 -19.27261908 131.15713751 C-19.25921293 141.36561154 -19.26154713 151.57398325 -19.27537537 161.78245544 C-19.29143207 173.6415864 -19.29740505 185.50066779 -19.28853858 197.35981172 C-19.28385842 203.63594707 -19.28324675 209.91201194 -19.29314804 216.18814278 C-19.30180442 222.08722526 -19.29581994 227.98611417 -19.27846527 233.8851757 C-19.27449353 236.05196689 -19.27564618 238.21877433 -19.28225327 240.38555908 C-19.2904314 243.33957651 -19.28019211 246.2929707 -19.26521301 249.24694824 C-19.27190518 250.10764563 -19.27859734 250.96834302 -19.2854923 251.85512215 C-19.22953569 257.53073718 -18.14051886 260.75538048 -14.38426208 265.13768005 C-11.02476653 267.93725969 -7.33172961 267.51490174 -3.17281532 267.51910782 C-2.13911786 267.52218677 -2.13911786 267.52218677 -1.08453763 267.52532792 C1.24170922 267.53101557 3.56789718 267.52953851 5.89414978 267.52812195 C7.57196993 267.53070457 9.24978946 267.53371743 10.92760813 267.53712535 C15.55162064 267.54521061 20.17561763 267.54698577 24.79963636 267.54772282 C29.78132515 267.5495707 34.76300583 267.55711663 39.74468994 267.56385803 C50.64325967 267.57745217 61.54182572 267.5834676 72.44040251 267.58786869 C79.24152041 267.59062898 86.04263688 267.59486591 92.84375381 267.59937286 C111.66306914 267.61156636 130.48238331 267.62186589 149.3017025 267.62524796 C150.50665711 267.62546752 151.71161171 267.62568709 152.9530801 267.62591331 C154.16096233 267.62613158 155.36884456 267.62634986 156.61332929 267.62657475 C159.06107227 267.62701823 161.50881525 267.62746479 163.95655823 267.62791443 C165.17073038 267.62813586 166.38490254 267.62835729 167.63586779 267.62858543 C187.31965612 267.63253533 207.00340748 267.64999485 226.68718152 267.67327395 C246.88175373 267.69696501 267.07630736 267.70944876 287.27089369 267.71061587 C298.61529721 267.71153384 309.95965254 267.71731673 321.30404282 267.73543549 C330.96200482 267.75080611 340.61990374 267.75597491 350.27787565 267.74769738 C355.20806219 267.74378023 360.13812158 267.74477223 365.06829262 267.75875473 C369.57860667 267.77142986 374.0886972 267.77035273 378.59901066 267.75816402 C380.23359075 267.7561959 381.86818633 267.7593365 383.5027446 267.76800838 C385.71964001 267.77902825 387.93573637 267.77166523 390.15260887 267.75961685 C392.00187573 267.76051248 392.00187573 267.76051248 393.88850152 267.76142621 C398.637446 267.21145108 402.06868306 265.04414588 405.11573792 261.38768005 C406.4382708 257.42008141 406.26031611 253.62394824 406.25617981 249.48745728 C406.25915093 248.56624456 406.26212205 247.64503185 406.26518321 246.6959036 C406.27388413 243.59600163 406.27537963 240.49613821 406.27687073 237.39622498 C406.2814979 235.17894406 406.28652242 232.96166395 406.29191589 230.74438477 C406.30505123 224.71129441 406.31148701 218.67821518 406.31592655 212.64511275 C406.31885532 208.87792227 406.32295974 205.11073486 406.32743073 201.34354591 C406.33954071 190.9130109 406.3499225 180.48247804 406.35330582 170.05193615 C406.35352538 169.38437074 406.35374495 168.71680533 406.35397117 168.02901067 C406.35418945 167.35984948 406.35440772 166.69068829 406.35463262 166.00124949 C406.35507608 164.64527778 406.35552265 163.28930606 406.35597229 161.93333435 C406.35619372 161.26072578 406.35641515 160.58811721 406.35664329 159.89512656 C406.3605912 148.99677617 406.3780451 138.09849265 406.40133181 127.2001681 C406.42504768 116.01066244 406.4372498 104.82118116 406.43867373 93.63164788 C406.43972306 87.34927378 406.44565804 81.06699397 406.46349335 74.78464317 C406.47994175 68.87576925 406.4821452 62.96706085 406.47335434 57.05817223 C406.47258225 54.88857074 406.47694927 52.71896046 406.48681259 50.54938126 C406.49948248 47.58900708 406.4936821 44.62922353 406.48323059 41.66885376 C406.491287 40.80902285 406.4993434 39.94919195 406.50764394 39.06330556 C406.46696929 34.14184299 406.05936327 30.53193263 403.11573792 26.38768005 C398.63163256 23.63794882 395.25884312 23.0122226 390.03794098 23.01015663 C389.3456474 23.00579631 388.65335383 23.00143599 387.94008166 22.99694353 C385.62095158 22.98599761 383.30241733 22.99640583 380.98329163 23.00672913 C379.30359261 23.0032723 377.62389586 22.99850756 375.94420385 22.99254739 C371.32884141 22.98001123 366.71366481 22.98621968 362.09830165 22.99550605 C357.12072785 23.00228548 352.14318631 22.9918208 347.1656189 22.98356628 C337.41469063 22.97021495 327.66383157 22.97311293 317.91290057 22.98180421 C309.98927086 22.98857483 302.06566058 22.98950016 294.14202881 22.98623276 C292.45148869 22.98554321 292.45148869 22.98554321 290.72679624 22.98483973 C288.43738082 22.98388057 286.14796542 22.98290793 283.85855001 22.98192196 C262.38240415 22.97336396 240.90629669 22.98320863 219.43015712 22.99932306 C200.99606717 23.0127266 182.56203388 23.01039862 164.12794495 22.99656677 C142.72950701 22.9805182 121.33110274 22.97418797 99.93265963 22.98340356 C97.65158876 22.98435923 95.37051789 22.98530234 93.08944702 22.98623276 C91.96706834 22.98669558 90.84468966 22.98715841 89.68829951 22.98763526 C81.77268056 22.99022732 73.85708293 22.9858495 65.94146729 22.9787941 C56.29713829 22.97038694 46.65288256 22.97264273 37.00856197 22.98863633 C32.08633826 22.99652959 27.16423678 22.99959266 22.24201393 22.98968887 C17.73792429 22.98076334 13.23407042 22.98563943 8.73000222 23.00162153 C7.09886322 23.00497842 5.46770437 23.00325492 3.83657807 22.99599417 C1.62194587 22.98689064 -0.59187545 22.99620832 -2.80646515 23.01015663 C-4.6527231 23.01088722 -4.6527231 23.01088722 -6.5362792 23.01163256 C-10.28239254 23.43239831 -12.68252589 24.42421828 -15.88426208 26.38768005 Z " fill="#000000" transform="translate(61.88426208496094,112.61231994628906)"/>
<path d="M0 0 C15.51 0 31.02 0 47 0 C54.12845827 8.7734871 61.21512392 17.51861612 68.171875 26.41796875 C71.86021307 31.11233645 75.64292095 35.72980812 79.41674805 40.35546875 C83.34978691 45.18219039 87.22019378 50.05189004 91 55 C95.21848939 50.94740626 98.92871082 46.59210096 102.625 42.0625 C103.54913696 40.93533569 103.54913696 40.93533569 104.49194336 39.78540039 C108.68017196 34.66079464 112.79865757 29.48590703 116.86547852 24.26464844 C121.08426466 18.85774616 125.41352146 13.54295235 129.76196289 8.23999023 C130.5468811 7.28008179 130.5468811 7.28008179 131.34765625 6.30078125 C132.04387085 5.45253784 132.04387085 5.45253784 132.75415039 4.5871582 C133.91071998 3.11373886 134.96097416 1.55853877 136 0 C151.51 0 167.02 0 183 0 C183 51.15 183 102.3 183 155 C167.49 155 151.98 155 136 155 C135.67 127.28 135.34 99.56 135 71 C126.65243964 80.80044044 126.65243964 80.80044044 118.625 90.8125 C114.0457097 96.70099873 109.36724167 102.50273629 104.65405273 108.28442383 C100.40421872 113.49793902 96.18796433 118.73657655 92 124 C88.42599926 120.50926451 85.08939746 116.88907964 81.875 113.0625 C81.39981934 112.49893799 80.92463867 111.93537598 80.43505859 111.35473633 C76.61895117 106.79992607 72.93290848 102.15139338 69.2824707 97.46337891 C64.11288341 90.83240144 58.79386146 84.32390545 53.47290039 77.81420898 C51.63665164 75.55245456 49.81992683 73.27490854 48 71 C47.67 98.72 47.34 126.44 47 155 C31.49 155 15.98 155 0 155 C0 103.85 0 52.7 0 0 Z " fill="#000000" transform="translate(87,180)"/>
<path d="M0 0 C15.18 0 30.36 0 46 0 C46 26.4 46 52.8 46 80 C60.85 80 75.7 80 91 80 C89.29714478 83.40571043 88.10000333 85.17509147 85.55078125 87.828125 C84.86693359 88.54613281 84.18308594 89.26414062 83.47851562 90.00390625 C82.40633789 91.11572266 82.40633789 91.11572266 81.3125 92.25 C76.64307783 97.12281683 72.05110129 102.02668004 67.63256836 107.12890625 C65.18741533 109.93130685 62.65913646 112.65324449 60.125 115.375 C55.8013584 120.03833223 51.52181547 124.73696176 47.27734375 129.47265625 C44.24215321 132.84104095 41.17928229 136.18385473 38.10107422 139.51293945 C35.83478907 141.96961171 33.61764651 144.44598179 31.44140625 146.984375 C30.65636719 147.89703125 29.87132812 148.8096875 29.0625 149.75 C28.37285156 150.56984375 27.68320312 151.3896875 26.97265625 152.234375 C25 154 25 154 21 154 C19.10546875 152.53125 19.10546875 152.53125 17.1875 150.5 C16.48496094 149.76136719 15.78242188 149.02273438 15.05859375 148.26171875 C12.67957906 145.64796257 10.34431341 143.00315188 8.0390625 140.32421875 C5.45246655 137.37589578 2.79163286 134.50085394 0.125 131.625 C-4.19767547 126.96076165 -8.47816805 122.26305663 -12.72265625 117.52734375 C-15.29809793 114.66917777 -17.89687729 111.83291561 -20.5 109 C-24.60199135 104.53490015 -28.67597523 100.0461699 -32.71875 95.52734375 C-34.3932076 93.67225117 -36.07894335 91.83306748 -37.78125 90.00390625 C-38.4762561 89.25282593 -38.4762561 89.25282593 -39.18530273 88.48657227 C-40.49647968 87.07126356 -41.81256597 85.6605077 -43.12890625 84.25 C-45 82 -45 82 -45 80 C-30.15 80 -15.3 80 0 80 C0 53.6 0 27.2 0 0 Z " fill="#000000" transform="translate(348,180)"/>
</svg>
